<?xml version="1.0" encoding="UTF-8" standalone="no"?>
<!DOCTYPE svg PUBLIC "-//W3C//DTD SVG 1.1//EN"
 "http://www.w3.org/Graphics/SVG/1.1/DTD/svg11.dtd">
<!-- Generated by graphviz version 2.38.0 (20140413.2041)
 -->
<!-- Title: Make Pages: 1 -->
<svg width="1597pt" height="966pt"
 viewBox="0.00 0.00 1596.96 966.00" xmlns="http://www.w3.org/2000/svg" xmlns:xlink="http://www.w3.org/1999/xlink">
<g id="graph0" class="graph" transform="scale(1 1) rotate(0) translate(4 962)">
<title>Make</title>
<polygon fill="white" stroke="none" points="-4,4 -4,-962 1592.96,-962 1592.96,4 -4,4"/>
<g id="clust1" class="cluster"><title>clusterLinux</title>
<polygon fill="none" stroke="crimson" points="533.964,-278 533.964,-794 1057.96,-794 1057.96,-278 533.964,-278"/>
<text text-anchor="middle" x="795.964" y="-778.8" font-family="Times,serif" font-size="14.00">Linux Host</text>
</g>
<g id="clust2" class="cluster"><title>clusterOsx</title>
<polygon fill="none" stroke="forestgreen" points="1065.96,-278 1065.96,-794 1580.96,-794 1580.96,-278 1065.96,-278"/>
<text text-anchor="middle" x="1323.46" y="-778.8" font-family="Times,serif" font-size="14.00">macOS Host</text>
</g>
<g id="clust3" class="cluster"><title>clusterWin</title>
<polygon fill="none" stroke="dodgerblue" points="9.96446,-278 9.96446,-794 525.964,-794 525.964,-278 9.96446,-278"/>
<text text-anchor="middle" x="267.964" y="-778.8" font-family="Times,serif" font-size="14.00">Windows Host</text>
</g>
<g id="clust4" class="cluster"><title>clusterAny</title>
<polygon fill="none" stroke="dimgrey" points="447.964,-8 447.964,-259 729.964,-259 729.964,-8 447.964,-8"/>
<text text-anchor="middle" x="588.964" y="-243.8" font-family="Times,serif" font-size="14.00">Any Previous Host</text>
</g>
<!-- CPP -->
<g id="node1" class="node"><title>CPP</title>
<polygon fill="royalblue" stroke="black" points="544.964,-958 428.964,-958 428.964,-922 550.964,-922 550.964,-952 544.964,-958"/>
<polyline fill="none" stroke="black" points="544.964,-958 544.964,-952 "/>
<polyline fill="none" stroke="black" points="550.964,-952 544.964,-952 "/>
<text text-anchor="middle" x="489.964" y="-936.3" font-family="Times,serif" font-size="14.00">ortools.h/ortools.cc</text>
</g>
<!-- SWIG -->
<g id="node2" class="node"><title>SWIG</title>
<polygon fill="white" stroke="black" points="753.464,-871 658.464,-871 658.464,-835 759.464,-835 759.464,-865 753.464,-871"/>
<polyline fill="none" stroke="black" points="753.464,-871 753.464,-865 "/>
<polyline fill="none" stroke="black" points="759.464,-865 753.464,-865 "/>
<text text-anchor="middle" x="708.964" y="-849.3" font-family="Times,serif" font-size="14.00">csharp/ortools.i</text>
</g>
<!-- CPP&#45;&gt;SWIG -->
<g id="edge1" class="edge"><title>CPP&#45;&gt;SWIG</title>
<path fill="none" stroke="black" stroke-dasharray="5,2" d="M534.019,-921.901C568.99,-908.328 618.028,-889.295 655.291,-874.832"/>
<polygon fill="black" stroke="black" points="656.924,-877.953 664.98,-871.071 654.392,-871.427 656.924,-877.953"/>
<text text-anchor="middle" x="632.964" y="-892.8" font-family="Times,serif" font-size="14.00">include</text>
</g>
<!-- LINUX_LIB -->
<g id="node3" class="node"><title>LINUX_LIB</title>
<polygon fill="royalblue" stroke="black" points="703.464,-763 542.464,-763 542.464,-759 538.464,-759 538.464,-755 542.464,-755 542.464,-733 538.464,-733 538.464,-729 542.464,-729 542.464,-725 703.464,-725 703.464,-763"/>
<polyline fill="none" stroke="black" points="542.464,-759 546.464,-759 546.464,-755 542.464,-755 "/>
<polyline fill="none" stroke="black" points="542.464,-733 546.464,-733 546.464,-729 542.464,-729 "/>
<text text-anchor="middle" x="622.964" y="-747.8" font-family="Times,serif" font-size="14.00">libortools.so</text>
<text text-anchor="middle" x="622.964" y="-732.8" font-family="Times,serif" font-size="14.00">runtimes/linux&#45;x64/native/</text>
</g>
<!-- CPP&#45;&gt;LINUX_LIB -->
<g id="edge16" class="edge"><title>CPP&#45;&gt;LINUX_LIB</title>
<path fill="none" stroke="black" stroke-width="2" d="M474.68,-921.596C451.577,-893.153 413.619,-836.435 444.964,-802 457.736,-787.97 511.781,-799.414 529.964,-794 549.74,-788.112 570.188,-777.867 586.857,-768.262"/>
<polygon fill="black" stroke="black" stroke-width="2" points="588.881,-771.132 595.701,-763.024 585.313,-765.109 588.881,-771.132"/>
<text text-anchor="middle" x="467.464" y="-849.3" font-family="Times,serif" font-size="14.00">make_cc</text>
</g>
<!-- OSX_LIB -->
<g id="node11" class="node"><title>OSX_LIB</title>
<polygon fill="royalblue" stroke="black" points="1427.96,-763 1275.96,-763 1275.96,-759 1271.96,-759 1271.96,-755 1275.96,-755 1275.96,-733 1271.96,-733 1271.96,-729 1275.96,-729 1275.96,-725 1427.96,-725 1427.96,-763"/>
<polyline fill="none" stroke="black" points="1275.96,-759 1279.96,-759 1279.96,-755 1275.96,-755 "/>
<polyline fill="none" stroke="black" points="1275.96,-733 1279.96,-733 1279.96,-729 1275.96,-729 "/>
<text text-anchor="middle" x="1351.96" y="-747.8" font-family="Times,serif" font-size="14.00">libortools.dylib</text>
<text text-anchor="middle" x="1351.96" y="-732.8" font-family="Times,serif" font-size="14.00">runtimes/osx&#45;x64/native/</text>
</g>
<!-- CPP&#45;&gt;OSX_LIB -->
<g id="edge31" class="edge"><title>CPP&#45;&gt;OSX_LIB</title>
<path fill="none" stroke="black" stroke-width="2" d="M550.973,-934.788C678.104,-924.723 979.536,-894.108 1219.96,-817 1255.1,-805.733 1291.67,-784.961 1317.39,-768.613"/>
<polygon fill="black" stroke="black" stroke-width="2" points="1319.51,-771.407 1326.01,-763.038 1315.71,-765.528 1319.51,-771.407"/>
<text text-anchor="middle" x="1181.46" y="-849.3" font-family="Times,serif" font-size="14.00">make_cc</text>
</g>
<!-- WIN_LIB -->
<g id="node19" class="node"><title>WIN_LIB</title>
<polygon fill="royalblue" stroke="black" points="314.964,-763 160.964,-763 160.964,-759 156.964,-759 156.964,-755 160.964,-755 160.964,-733 156.964,-733 156.964,-729 160.964,-729 160.964,-725 314.964,-725 314.964,-763"/>
<polyline fill="none" stroke="black" points="160.964,-759 164.964,-759 164.964,-755 160.964,-755 "/>
<polyline fill="none" stroke="black" points="160.964,-733 164.964,-733 164.964,-729 160.964,-729 "/>
<text text-anchor="middle" x="237.964" y="-747.8" font-family="Times,serif" font-size="14.00">libortools.dll</text>
<text text-anchor="middle" x="237.964" y="-732.8" font-family="Times,serif" font-size="14.00">runtimes/win&#45;x64/native/</text>
</g>
<!-- CPP&#45;&gt;WIN_LIB -->
<g id="edge46" class="edge"><title>CPP&#45;&gt;WIN_LIB</title>
<path fill="none" stroke="black" stroke-width="2" d="M459.483,-921.809C437.126,-908.768 406.368,-889.915 380.964,-871 337.783,-838.848 291.728,-796.669 263.894,-770.196"/>
<polygon fill="black" stroke="black" stroke-width="2" points="266.19,-767.549 256.544,-763.167 261.352,-772.608 266.19,-767.549"/>
<text text-anchor="middle" x="405.464" y="-849.3" font-family="Times,serif" font-size="14.00">make_cc</text>
</g>
<!-- SWIG&#45;&gt;LINUX_LIB -->
<g id="edge58" class="edge"><title>SWIG&#45;&gt;LINUX_LIB</title>
</g>
<!-- LINUX_CSWRP -->
<g id="node4" class="node"><title>LINUX_CSWRP</title>
<polygon fill="darkviolet" stroke="black" points="867.464,-585 804.464,-585 804.464,-549 873.464,-549 873.464,-579 867.464,-585"/>
<polyline fill="none" stroke="black" points="867.464,-585 867.464,-579 "/>
<polyline fill="none" stroke="black" points="873.464,-579 867.464,-579 "/>
<text text-anchor="middle" x="838.964" y="-563.3" font-family="Times,serif" font-size="14.00">ortools.cs</text>
</g>
<!-- SWIG&#45;&gt;LINUX_CSWRP -->
<g id="edge14" class="edge"><title>SWIG&#45;&gt;LINUX_CSWRP</title>
<path fill="none" stroke="black" stroke-width="2" d="M759.683,-849.549C798.803,-844.671 850.55,-831.063 876.964,-794 920.511,-732.897 879.278,-639.175 854.541,-594.051"/>
<polygon fill="black" stroke="black" stroke-width="2" points="857.507,-592.184 849.55,-585.189 851.408,-595.619 857.507,-592.184"/>
<text text-anchor="middle" x="907.964" y="-695.8" font-family="Times,serif" font-size="14.00">swig</text>
</g>
<!-- LINUX_CPPWRP -->
<g id="node5" class="node"><title>LINUX_CPPWRP</title>
<polygon fill="royalblue" stroke="black" points="861.964,-762 721.964,-762 721.964,-726 867.964,-726 867.964,-756 861.964,-762"/>
<polyline fill="none" stroke="black" points="861.964,-762 861.964,-756 "/>
<polyline fill="none" stroke="black" points="867.964,-756 861.964,-756 "/>
<text text-anchor="middle" x="794.964" y="-740.3" font-family="Times,serif" font-size="14.00">ortools_csharp_wrap.cc</text>
</g>
<!-- SWIG&#45;&gt;LINUX_CPPWRP -->
<g id="edge15" class="edge"><title>SWIG&#45;&gt;LINUX_CPPWRP</title>
<path fill="none" stroke="black" stroke-width="2" d="M722.782,-834.809C736.824,-817.337 758.729,-790.084 774.727,-770.179"/>
<polygon fill="black" stroke="black" stroke-width="2" points="777.645,-772.136 781.181,-762.149 772.189,-767.751 777.645,-772.136"/>
<text text-anchor="middle" x="759.964" y="-805.8" font-family="Times,serif" font-size="14.00">swig</text>
</g>
<!-- SWIG&#45;&gt;OSX_LIB -->
<g id="edge59" class="edge"><title>SWIG&#45;&gt;OSX_LIB</title>
</g>
<!-- OSX_CSWRP -->
<g id="node12" class="node"><title>OSX_CSWRP</title>
<polygon fill="darkviolet" stroke="black" points="1297.46,-585 1234.46,-585 1234.46,-549 1303.46,-549 1303.46,-579 1297.46,-585"/>
<polyline fill="none" stroke="black" points="1297.46,-585 1297.46,-579 "/>
<polyline fill="none" stroke="black" points="1303.46,-579 1297.46,-579 "/>
<text text-anchor="middle" x="1268.96" y="-563.3" font-family="Times,serif" font-size="14.00">ortools.cs</text>
</g>
<!-- SWIG&#45;&gt;OSX_CSWRP -->
<g id="edge29" class="edge"><title>SWIG&#45;&gt;OSX_CSWRP</title>
<path fill="none" stroke="black" stroke-width="2" d="M759.563,-848.91C845.077,-842.844 1013.61,-826.991 1061.96,-794 1091.43,-773.895 1080.68,-752.856 1102.96,-725 1144.94,-672.521 1204.06,-620.742 1239.25,-591.72"/>
<polygon fill="black" stroke="black" stroke-width="2" points="1241.71,-594.232 1247.23,-585.19 1237.27,-588.814 1241.71,-594.232"/>
<text text-anchor="middle" x="1144.96" y="-695.8" font-family="Times,serif" font-size="14.00">swig</text>
</g>
<!-- OSX_CPPWRP -->
<g id="node13" class="node"><title>OSX_CPPWRP</title>
<polygon fill="royalblue" stroke="black" points="1251.96,-762 1111.96,-762 1111.96,-726 1257.96,-726 1257.96,-756 1251.96,-762"/>
<polyline fill="none" stroke="black" points="1251.96,-762 1251.96,-756 "/>
<polyline fill="none" stroke="black" points="1257.96,-756 1251.96,-756 "/>
<text text-anchor="middle" x="1184.96" y="-740.3" font-family="Times,serif" font-size="14.00">ortools_csharp_wrap.cc</text>
</g>
<!-- SWIG&#45;&gt;OSX_CPPWRP -->
<g id="edge30" class="edge"><title>SWIG&#45;&gt;OSX_CPPWRP</title>
<path fill="none" stroke="black" stroke-width="2" d="M759.525,-851.153C850.527,-849.021 1038.01,-841.684 1097.96,-817 1123.43,-806.515 1147.15,-785.855 1163.37,-769.345"/>
<polygon fill="black" stroke="black" stroke-width="2" points="1165.9,-771.757 1170.27,-762.103 1160.84,-766.927 1165.9,-771.757"/>
<text text-anchor="middle" x="1137.96" y="-805.8" font-family="Times,serif" font-size="14.00">swig</text>
</g>
<!-- SWIG&#45;&gt;WIN_LIB -->
<g id="edge60" class="edge"><title>SWIG&#45;&gt;WIN_LIB</title>
</g>
<!-- WIN_CSWRP -->
<g id="node20" class="node"><title>WIN_CSWRP</title>
<polygon fill="darkviolet" stroke="black" points="279.464,-585 216.464,-585 216.464,-549 285.464,-549 285.464,-579 279.464,-585"/>
<polyline fill="none" stroke="black" points="279.464,-585 279.464,-579 "/>
<polyline fill="none" stroke="black" points="285.464,-579 279.464,-579 "/>
<text text-anchor="middle" x="250.964" y="-563.3" font-family="Times,serif" font-size="14.00">ortools.cs</text>
</g>
<!-- SWIG&#45;&gt;WIN_CSWRP -->
<g id="edge44" class="edge"><title>SWIG&#45;&gt;WIN_CSWRP</title>
<path fill="none" stroke="black" stroke-width="2" d="M658.152,-845.306C619.621,-838.073 567.131,-823.365 529.964,-794 501.795,-771.743 510.263,-753.137 487.964,-725 439.945,-664.408 430.323,-642.671 363.964,-603 343.04,-590.491 317.226,-582.057 295.554,-576.609"/>
<polygon fill="black" stroke="black" stroke-width="2" points="296.144,-573.152 285.606,-574.241 294.523,-579.962 296.144,-573.152"/>
<text text-anchor="middle" x="486.964" y="-695.8" font-family="Times,serif" font-size="14.00">swig</text>
</g>
<!-- WIN_CPPWRP -->
<g id="node21" class="node"><title>WIN_CPPWRP</title>
<polygon fill="royalblue" stroke="black" points="472.964,-762 332.964,-762 332.964,-726 478.964,-726 478.964,-756 472.964,-762"/>
<polyline fill="none" stroke="black" points="472.964,-762 472.964,-756 "/>
<polyline fill="none" stroke="black" points="478.964,-756 472.964,-756 "/>
<text text-anchor="middle" x="405.964" y="-740.3" font-family="Times,serif" font-size="14.00">ortools_csharp_wrap.cc</text>
</g>
<!-- SWIG&#45;&gt;WIN_CPPWRP -->
<g id="edge45" class="edge"><title>SWIG&#45;&gt;WIN_CPPWRP</title>
<path fill="none" stroke="black" stroke-width="2" d="M658.213,-848.881C597.166,-844.407 498.902,-834.688 466.964,-817 447.496,-806.218 431.512,-786.605 420.797,-770.569"/>
<polygon fill="black" stroke="black" stroke-width="2" points="423.728,-768.655 415.398,-762.107 417.827,-772.42 423.728,-768.655"/>
<text text-anchor="middle" x="479.964" y="-805.8" font-family="Times,serif" font-size="14.00">swig</text>
</g>
<!-- LINUX_LIBWRP -->
<g id="node6" class="node"><title>LINUX_LIBWRP</title>
<polygon fill="royalblue" stroke="black" points="854.964,-674 630.964,-674 630.964,-670 626.964,-670 626.964,-666 630.964,-666 630.964,-644 626.964,-644 626.964,-640 630.964,-640 630.964,-636 854.964,-636 854.964,-674"/>
<polyline fill="none" stroke="black" points="630.964,-670 634.964,-670 634.964,-666 630.964,-666 "/>
<polyline fill="none" stroke="black" points="630.964,-644 634.964,-644 634.964,-640 630.964,-640 "/>
<text text-anchor="middle" x="742.964" y="-658.8" font-family="Times,serif" font-size="14.00">runtime.linux&#45;x64.Google.OrTools.so</text>
<text text-anchor="middle" x="742.964" y="-643.8" font-family="Times,serif" font-size="14.00">runtimes/linux&#45;x64/native</text>
</g>
<!-- LINUX_LIB&#45;&gt;LINUX_LIBWRP -->
<g id="edge3" class="edge"><title>LINUX_LIB&#45;&gt;LINUX_LIBWRP</title>
<path fill="none" stroke="black" stroke-width="2" d="M647.829,-724.974C665.769,-711.967 690.18,-694.269 709.782,-680.057"/>
<polygon fill="black" stroke="black" stroke-width="2" points="712.091,-682.707 718.132,-674.003 707.982,-677.039 712.091,-682.707"/>
<text text-anchor="middle" x="696.464" y="-695.8" font-family="Times,serif" font-size="14.00">ld</text>
</g>
<!-- LINUX_CSPROJ -->
<g id="node7" class="node"><title>LINUX_CSPROJ</title>
<polygon fill="darkviolet" stroke="black" points="863.464,-498 624.464,-498 624.464,-462 869.464,-462 869.464,-492 863.464,-498"/>
<polyline fill="none" stroke="black" points="863.464,-498 863.464,-492 "/>
<polyline fill="none" stroke="black" points="869.464,-492 863.464,-492 "/>
<text text-anchor="middle" x="746.964" y="-476.3" font-family="Times,serif" font-size="14.00">runtime.linux&#45;x64.Google.OrTools.csproj</text>
</g>
<!-- LINUX_LIB&#45;&gt;LINUX_CSPROJ -->
<g id="edge6" class="edge"><title>LINUX_LIB&#45;&gt;LINUX_CSPROJ</title>
<path fill="none" stroke="black" stroke-dasharray="5,2" d="M611.957,-724.878C596.741,-697.307 573.27,-643.728 592.964,-603 615.14,-557.14 663.853,-523.268 700.593,-503.003"/>
<polygon fill="black" stroke="black" points="702.494,-505.956 709.653,-498.146 699.186,-499.787 702.494,-505.956"/>
<text text-anchor="middle" x="614.464" y="-606.8" font-family="Times,serif" font-size="14.00">Content</text>
</g>
<!-- LINUX_NUPKG -->
<g id="node10" class="node"><title>LINUX_NUPKG</title>
<polygon fill="darkviolet" stroke="black" points="842.464,-322 839.464,-326 818.464,-326 815.464,-322 597.464,-322 597.464,-286 842.464,-286 842.464,-322"/>
<text text-anchor="middle" x="719.964" y="-300.3" font-family="Times,serif" font-size="14.00">runtime.linux&#45;x64.Google.OrTools.nupkg</text>
</g>
<!-- LINUX_LIB&#45;&gt;LINUX_NUPKG -->
<g id="edge10" class="edge"><title>LINUX_LIB&#45;&gt;LINUX_NUPKG</title>
<path fill="none" stroke="black" stroke-dasharray="5,2" d="M606.371,-724.785C601.944,-719.328 597.433,-713.152 593.964,-707 586.299,-693.406 585.167,-689.274 581.964,-674 554.471,-542.86 528.911,-502.049 564.964,-373 569.579,-356.482 571.206,-350.239 584.964,-340 592.31,-334.533 600.432,-329.917 608.941,-326.021"/>
<polygon fill="black" stroke="black" points="610.454,-329.181 618.306,-322.069 607.732,-322.732 610.454,-329.181"/>
<text text-anchor="middle" x="563.964" y="-519.8" font-family="Times,serif" font-size="14.00">pack</text>
</g>
<!-- LINUX_CSWRP&#45;&gt;LINUX_CSPROJ -->
<g id="edge5" class="edge"><title>LINUX_CSWRP&#45;&gt;LINUX_CSPROJ</title>
<path fill="none" stroke="black" stroke-dasharray="5,2" d="M820.347,-548.799C806.755,-536.241 788.147,-519.049 773.071,-505.12"/>
<polygon fill="black" stroke="black" points="775.274,-502.391 765.554,-498.175 770.524,-507.532 775.274,-502.391"/>
<text text-anchor="middle" x="822.964" y="-519.8" font-family="Times,serif" font-size="14.00">Compile</text>
</g>
<!-- LINUX_CPPWRP&#45;&gt;LINUX_LIBWRP -->
<g id="edge2" class="edge"><title>LINUX_CPPWRP&#45;&gt;LINUX_LIBWRP</title>
<path fill="none" stroke="black" stroke-width="2" d="M784.691,-725.812C777.358,-713.544 767.353,-696.804 758.978,-682.791"/>
<polygon fill="black" stroke="black" stroke-width="2" points="761.888,-680.839 753.754,-674.051 755.88,-684.431 761.888,-680.839"/>
<text text-anchor="middle" x="784.964" y="-695.8" font-family="Times,serif" font-size="14.00">g++</text>
</g>
<!-- LINUX_LIBWRP&#45;&gt;LINUX_CSWRP -->
<g id="edge4" class="edge"><title>LINUX_LIBWRP&#45;&gt;LINUX_CSWRP</title>
<path fill="none" stroke="black" stroke-dasharray="5,2" d="M763.324,-635.762C777.572,-622.998 796.749,-605.818 812.229,-591.951"/>
<polygon fill="black" stroke="black" points="814.828,-594.322 819.941,-585.042 810.157,-589.108 814.828,-594.322"/>
<text text-anchor="middle" x="822.964" y="-606.8" font-family="Times,serif" font-size="14.00">PInvoke</text>
</g>
<!-- LINUX_LIBWRP&#45;&gt;LINUX_CSPROJ -->
<g id="edge7" class="edge"><title>LINUX_LIBWRP&#45;&gt;LINUX_CSPROJ</title>
<path fill="none" stroke="black" stroke-dasharray="5,2" d="M743.385,-635.813C744.088,-605.387 745.508,-544.003 746.332,-508.35"/>
<polygon fill="black" stroke="black" points="749.835,-508.252 746.567,-498.174 742.837,-508.09 749.835,-508.252"/>
<text text-anchor="middle" x="767.464" y="-563.3" font-family="Times,serif" font-size="14.00">Content</text>
</g>
<!-- LINUX_LIBWRP&#45;&gt;LINUX_NUPKG -->
<g id="edge11" class="edge"><title>LINUX_LIBWRP&#45;&gt;LINUX_NUPKG</title>
<path fill="none" stroke="black" stroke-dasharray="5,2" d="M717.21,-635.889C682.145,-609.735 620.183,-557.905 588.964,-498 570.795,-463.135 576.535,-450.153 572.964,-411 571.431,-394.181 563.868,-387.23 572.964,-373 587.003,-351.038 610.148,-336.066 633.965,-325.9"/>
<polygon fill="black" stroke="black" points="635.479,-329.063 643.465,-322.1 632.88,-322.564 635.479,-329.063"/>
<text text-anchor="middle" x="601.964" y="-476.3" font-family="Times,serif" font-size="14.00">pack</text>
</g>
<!-- LINUX_DLL -->
<g id="node8" class="node"><title>LINUX_DLL</title>
<polygon fill="darkviolet" stroke="black" points="1049.96,-411 823.964,-411 823.964,-407 819.964,-407 819.964,-403 823.964,-403 823.964,-381 819.964,-381 819.964,-377 823.964,-377 823.964,-373 1049.96,-373 1049.96,-411"/>
<polyline fill="none" stroke="black" points="823.964,-407 827.964,-407 827.964,-403 823.964,-403 "/>
<polyline fill="none" stroke="black" points="823.964,-381 827.964,-381 827.964,-377 823.964,-377 "/>
<text text-anchor="middle" x="936.964" y="-395.8" font-family="Times,serif" font-size="14.00">Google.OrTools.dll</text>
<text text-anchor="middle" x="936.964" y="-380.8" font-family="Times,serif" font-size="14.00">runtimes/linux&#45;x64/lib/netstandard2.0/</text>
</g>
<!-- LINUX_CSPROJ&#45;&gt;LINUX_DLL -->
<g id="edge8" class="edge"><title>LINUX_CSPROJ&#45;&gt;LINUX_DLL</title>
<path fill="none" stroke="black" stroke-width="2" d="M784.957,-461.803C814.527,-448.419 855.789,-429.743 887.863,-415.225"/>
<polygon fill="black" stroke="black" stroke-width="2" points="889.406,-418.368 897.073,-411.056 886.519,-411.991 889.406,-418.368"/>
<text text-anchor="middle" x="886.964" y="-432.8" font-family="Times,serif" font-size="14.00">dotnet build</text>
</g>
<!-- LINUX_REF -->
<g id="node9" class="node"><title>LINUX_REF</title>
<polygon fill="darkviolet" stroke="black" points="705.464,-411 582.464,-411 582.464,-407 578.464,-407 578.464,-403 582.464,-403 582.464,-381 578.464,-381 578.464,-377 582.464,-377 582.464,-373 705.464,-373 705.464,-411"/>
<polyline fill="none" stroke="black" points="582.464,-407 586.464,-407 586.464,-403 582.464,-403 "/>
<polyline fill="none" stroke="black" points="582.464,-381 586.464,-381 586.464,-377 582.464,-377 "/>
<text text-anchor="middle" x="643.964" y="-395.8" font-family="Times,serif" font-size="14.00">Google.OrTools.dll</text>
<text text-anchor="middle" x="643.964" y="-380.8" font-family="Times,serif" font-size="14.00">ref/netstandard2.0/</text>
</g>
<!-- LINUX_CSPROJ&#45;&gt;LINUX_REF -->
<g id="edge9" class="edge"><title>LINUX_CSPROJ&#45;&gt;LINUX_REF</title>
<path fill="none" stroke="black" stroke-width="2" d="M697.392,-461.889C687.897,-457.102 678.562,-451.188 670.964,-444 664.091,-437.496 658.614,-428.849 654.439,-420.526"/>
<polygon fill="black" stroke="black" stroke-width="2" points="657.609,-419.042 650.273,-411.397 651.24,-421.948 657.609,-419.042"/>
<text text-anchor="middle" x="703.964" y="-432.8" font-family="Times,serif" font-size="14.00">dotnet build</text>
</g>
<!-- LINUX_CSPROJ&#45;&gt;LINUX_NUPKG -->
<g id="edge13" class="edge"><title>LINUX_CSPROJ&#45;&gt;LINUX_NUPKG</title>
<path fill="none" stroke="black" stroke-width="2" d="M744.326,-461.999C739.628,-431.723 729.778,-368.245 724.148,-331.962"/>
<polygon fill="black" stroke="black" stroke-width="2" points="727.605,-331.415 722.613,-322.07 720.688,-332.488 727.605,-331.415"/>
<text text-anchor="middle" x="768.964" y="-388.3" font-family="Times,serif" font-size="14.00">dotnet pack</text>
</g>
<!-- LINUX_DLL&#45;&gt;LINUX_NUPKG -->
<g id="edge12" class="edge"><title>LINUX_DLL&#45;&gt;LINUX_NUPKG</title>
<path fill="none" stroke="black" stroke-dasharray="5,2" d="M891.474,-372.972C856.792,-359.227 808.966,-340.272 772.627,-325.871"/>
<polygon fill="black" stroke="black" points="773.763,-322.556 763.177,-322.126 771.184,-329.064 773.763,-322.556"/>
<text text-anchor="middle" x="854.964" y="-343.8" font-family="Times,serif" font-size="14.00">pack</text>
</g>
<!-- FOO_REF -->
<g id="node27" class="node"><title>FOO_REF</title>
<polygon fill="darkviolet" stroke="black" points="683.464,-228 560.464,-228 560.464,-224 556.464,-224 556.464,-220 560.464,-220 560.464,-198 556.464,-198 556.464,-194 560.464,-194 560.464,-190 683.464,-190 683.464,-228"/>
<polyline fill="none" stroke="black" points="560.464,-224 564.464,-224 564.464,-220 560.464,-220 "/>
<polyline fill="none" stroke="black" points="560.464,-198 564.464,-198 564.464,-194 560.464,-194 "/>
<text text-anchor="middle" x="621.964" y="-212.8" font-family="Times,serif" font-size="14.00">Google.OrTools.dll</text>
<text text-anchor="middle" x="621.964" y="-197.8" font-family="Times,serif" font-size="14.00">ref/netstandard2.0/</text>
</g>
<!-- LINUX_REF&#45;&gt;FOO_REF -->
<g id="edge47" class="edge"><title>LINUX_REF&#45;&gt;FOO_REF</title>
<path fill="none" stroke="black" stroke-width="2" d="M610.104,-372.786C591.901,-360.965 571.151,-343.715 560.964,-322 552.659,-304.296 553.973,-296.263 560.964,-278 567.256,-261.564 579.555,-246.6 591.471,-234.92"/>
<polygon fill="black" stroke="black" stroke-width="2" points="593.866,-237.473 598.784,-228.088 589.087,-232.358 593.866,-237.473"/>
<text text-anchor="middle" x="574.464" y="-300.3" font-family="Times,serif" font-size="14.00">copy</text>
</g>
<!-- LINUX_NUPKG&#45;&gt;FOO_REF -->
<g id="edge61" class="edge"><title>LINUX_NUPKG&#45;&gt;FOO_REF</title>
</g>
<!-- FOO_CSPROJ -->
<g id="node29" class="node"><title>FOO_CSPROJ</title>
<polygon fill="darkviolet" stroke="black" points="715.964,-139 579.964,-139 579.964,-103 721.964,-103 721.964,-133 715.964,-139"/>
<polyline fill="none" stroke="black" points="715.964,-139 715.964,-133 "/>
<polyline fill="none" stroke="black" points="721.964,-133 715.964,-133 "/>
<text text-anchor="middle" x="650.964" y="-117.3" font-family="Times,serif" font-size="14.00">Google.OrTools.csproj</text>
</g>
<!-- LINUX_NUPKG&#45;&gt;FOO_CSPROJ -->
<g id="edge55" class="edge"><title>LINUX_NUPKG&#45;&gt;FOO_CSPROJ</title>
<path fill="none" stroke="black" stroke-dasharray="5,2" d="M719.213,-285.679C717.31,-257.13 710.598,-199.163 686.964,-157 684.903,-153.322 682.335,-149.784 679.525,-146.464"/>
<polygon fill="black" stroke="black" points="682.055,-144.045 672.657,-139.153 676.953,-148.838 682.055,-144.045"/>
<text text-anchor="middle" x="766.964" y="-205.3" font-family="Times,serif" font-size="14.00">PackageReference</text>
</g>
<!-- OSX_LIBWRP -->
<g id="node14" class="node"><title>OSX_LIBWRP</title>
<polygon fill="royalblue" stroke="black" points="1447.46,-674 1232.46,-674 1232.46,-670 1228.46,-670 1228.46,-666 1232.46,-666 1232.46,-644 1228.46,-644 1228.46,-640 1232.46,-640 1232.46,-636 1447.46,-636 1447.46,-674"/>
<polyline fill="none" stroke="black" points="1232.46,-670 1236.46,-670 1236.46,-666 1232.46,-666 "/>
<polyline fill="none" stroke="black" points="1232.46,-644 1236.46,-644 1236.46,-640 1232.46,-640 "/>
<text text-anchor="middle" x="1339.96" y="-658.8" font-family="Times,serif" font-size="14.00">runtime.osx&#45;x64.Google.OrTools.so</text>
<text text-anchor="middle" x="1339.96" y="-643.8" font-family="Times,serif" font-size="14.00">runtimes/osx&#45;x64/native</text>
</g>
<!-- OSX_LIB&#45;&gt;OSX_LIBWRP -->
<g id="edge18" class="edge"><title>OSX_LIB&#45;&gt;OSX_LIBWRP</title>
<path fill="none" stroke="black" stroke-width="2" d="M1349.48,-724.974C1347.85,-713.192 1345.7,-697.561 1343.85,-684.158"/>
<polygon fill="black" stroke="black" stroke-width="2" points="1347.28,-683.431 1342.45,-674.003 1340.35,-684.388 1347.28,-683.431"/>
<text text-anchor="middle" x="1351.46" y="-695.8" font-family="Times,serif" font-size="14.00">ld</text>
</g>
<!-- OSX_CSPROJ -->
<g id="node15" class="node"><title>OSX_CSPROJ</title>
<polygon fill="darkviolet" stroke="black" points="1449.96,-498 1219.96,-498 1219.96,-462 1455.96,-462 1455.96,-492 1449.96,-498"/>
<polyline fill="none" stroke="black" points="1449.96,-498 1449.96,-492 "/>
<polyline fill="none" stroke="black" points="1455.96,-492 1449.96,-492 "/>
<text text-anchor="middle" x="1337.96" y="-476.3" font-family="Times,serif" font-size="14.00">runtime.osx&#45;x64.Google.OrTools.csproj</text>
</g>
<!-- OSX_LIB&#45;&gt;OSX_CSPROJ -->
<g id="edge21" class="edge"><title>OSX_LIB&#45;&gt;OSX_CSPROJ</title>
<path fill="none" stroke="black" stroke-dasharray="5,2" d="M1389.13,-724.963C1433.55,-700.672 1499.18,-654.506 1475.96,-603 1456.06,-558.842 1411.4,-524.229 1378.25,-503.325"/>
<polygon fill="black" stroke="black" points="1380.01,-500.303 1369.66,-498.052 1376.35,-506.268 1380.01,-500.303"/>
<text text-anchor="middle" x="1501.46" y="-606.8" font-family="Times,serif" font-size="14.00">Content</text>
</g>
<!-- OSX_NUPKG -->
<g id="node18" class="node"><title>OSX_NUPKG</title>
<polygon fill="darkviolet" stroke="black" points="1539.96,-322 1536.96,-326 1515.96,-326 1512.96,-322 1303.96,-322 1303.96,-286 1539.96,-286 1539.96,-322"/>
<text text-anchor="middle" x="1421.96" y="-300.3" font-family="Times,serif" font-size="14.00">runtime.osx&#45;x64.Google.OrTools.nupkg</text>
</g>
<!-- OSX_LIB&#45;&gt;OSX_NUPKG -->
<g id="edge25" class="edge"><title>OSX_LIB&#45;&gt;OSX_NUPKG</title>
<path fill="none" stroke="black" stroke-dasharray="5,2" d="M1402.5,-724.859C1446.1,-705.947 1505.37,-671.492 1526.96,-618 1567.73,-517.004 1556.35,-476.342 1521.96,-373 1516.32,-356.037 1512.7,-351.44 1498.96,-340 1493.01,-335.045 1486.25,-330.646 1479.25,-326.784"/>
<polygon fill="black" stroke="black" points="1480.81,-323.649 1470.32,-322.179 1477.6,-329.872 1480.81,-323.649"/>
<text text-anchor="middle" x="1564.96" y="-519.8" font-family="Times,serif" font-size="14.00">pack</text>
</g>
<!-- OSX_CSWRP&#45;&gt;OSX_CSPROJ -->
<g id="edge20" class="edge"><title>OSX_CSWRP&#45;&gt;OSX_CSPROJ</title>
<path fill="none" stroke="black" stroke-dasharray="5,2" d="M1272.3,-548.956C1274.97,-538.632 1279.52,-525.64 1286.96,-516 1290.2,-511.804 1294.09,-507.925 1298.25,-504.397"/>
<polygon fill="black" stroke="black" points="1300.71,-506.924 1306.5,-498.053 1296.44,-501.375 1300.71,-506.924"/>
<text text-anchor="middle" x="1310.96" y="-519.8" font-family="Times,serif" font-size="14.00">Compile</text>
</g>
<!-- OSX_CPPWRP&#45;&gt;OSX_LIBWRP -->
<g id="edge17" class="edge"><title>OSX_CPPWRP&#45;&gt;OSX_LIBWRP</title>
<path fill="none" stroke="black" stroke-width="2" d="M1215.59,-725.812C1239.42,-712.434 1272.73,-693.738 1298.88,-679.06"/>
<polygon fill="black" stroke="black" stroke-width="2" points="1300.8,-681.998 1307.8,-674.051 1297.37,-675.894 1300.8,-681.998"/>
<text text-anchor="middle" x="1282.96" y="-695.8" font-family="Times,serif" font-size="14.00">g++</text>
</g>
<!-- OSX_LIBWRP&#45;&gt;OSX_CSWRP -->
<g id="edge19" class="edge"><title>OSX_LIBWRP&#45;&gt;OSX_CSWRP</title>
<path fill="none" stroke="black" stroke-dasharray="5,2" d="M1308.41,-635.999C1301.33,-630.872 1294.34,-624.805 1288.96,-618 1283.53,-611.114 1279.39,-602.557 1276.33,-594.481"/>
<polygon fill="black" stroke="black" points="1279.64,-593.355 1273.11,-585.011 1273.01,-595.605 1279.64,-593.355"/>
<text text-anchor="middle" x="1311.96" y="-606.8" font-family="Times,serif" font-size="14.00">PInvoke</text>
</g>
<!-- OSX_LIBWRP&#45;&gt;OSX_CSPROJ -->
<g id="edge22" class="edge"><title>OSX_LIBWRP&#45;&gt;OSX_CSPROJ</title>
<path fill="none" stroke="black" stroke-dasharray="5,2" d="M1339.75,-635.813C1339.4,-605.387 1338.69,-544.003 1338.28,-508.35"/>
<polygon fill="black" stroke="black" points="1341.78,-508.133 1338.16,-498.174 1334.78,-508.214 1341.78,-508.133"/>
<text text-anchor="middle" x="1360.46" y="-563.3" font-family="Times,serif" font-size="14.00">Content</text>
</g>
<!-- OSX_LIBWRP&#45;&gt;OSX_NUPKG -->
<g id="edge26" class="edge"><title>OSX_LIBWRP&#45;&gt;OSX_NUPKG</title>
<path fill="none" stroke="black" stroke-dasharray="5,2" d="M1360.58,-635.868C1400.97,-598.672 1488.82,-508.95 1514.96,-411 1519.32,-394.682 1522.61,-388.06 1514.96,-373 1505.08,-353.535 1486.72,-338.307 1468.91,-327.242"/>
<polygon fill="black" stroke="black" points="1470.64,-324.2 1460.25,-322.144 1467.09,-330.233 1470.64,-324.2"/>
<text text-anchor="middle" x="1507.96" y="-476.3" font-family="Times,serif" font-size="14.00">pack</text>
</g>
<!-- OSX_DLL -->
<g id="node16" class="node"><title>OSX_DLL</title>
<polygon fill="darkviolet" stroke="black" points="1432.46,-411 1215.46,-411 1215.46,-407 1211.46,-407 1211.46,-403 1215.46,-403 1215.46,-381 1211.46,-381 1211.46,-377 1215.46,-377 1215.46,-373 1432.46,-373 1432.46,-411"/>
<polyline fill="none" stroke="black" points="1215.46,-407 1219.46,-407 1219.46,-403 1215.46,-403 "/>
<polyline fill="none" stroke="black" points="1215.46,-381 1219.46,-381 1219.46,-377 1215.46,-377 "/>
<text text-anchor="middle" x="1323.96" y="-395.8" font-family="Times,serif" font-size="14.00">Google.OrTools.dll</text>
<text text-anchor="middle" x="1323.96" y="-380.8" font-family="Times,serif" font-size="14.00">runtimes/osx&#45;x64/lib/netstandard2.0/</text>
</g>
<!-- OSX_CSPROJ&#45;&gt;OSX_DLL -->
<g id="edge23" class="edge"><title>OSX_CSPROJ&#45;&gt;OSX_DLL</title>
<path fill="none" stroke="black" stroke-width="2" d="M1335.13,-461.597C1333.25,-450.056 1330.74,-434.647 1328.58,-421.357"/>
<polygon fill="black" stroke="black" stroke-width="2" points="1332,-420.576 1326.94,-411.268 1325.09,-421.7 1332,-420.576"/>
<text text-anchor="middle" x="1364.96" y="-432.8" font-family="Times,serif" font-size="14.00">dotnet build</text>
</g>
<!-- OSX_REF -->
<g id="node17" class="node"><title>OSX_REF</title>
<polygon fill="darkviolet" stroke="black" points="1197.46,-411 1074.46,-411 1074.46,-407 1070.46,-407 1070.46,-403 1074.46,-403 1074.46,-381 1070.46,-381 1070.46,-377 1074.46,-377 1074.46,-373 1197.46,-373 1197.46,-411"/>
<polyline fill="none" stroke="black" points="1074.46,-407 1078.46,-407 1078.46,-403 1074.46,-403 "/>
<polyline fill="none" stroke="black" points="1074.46,-381 1078.46,-381 1078.46,-377 1074.46,-377 "/>
<text text-anchor="middle" x="1135.96" y="-395.8" font-family="Times,serif" font-size="14.00">Google.OrTools.dll</text>
<text text-anchor="middle" x="1135.96" y="-380.8" font-family="Times,serif" font-size="14.00">ref/netstandard2.0/</text>
</g>
<!-- OSX_CSPROJ&#45;&gt;OSX_REF -->
<g id="edge24" class="edge"><title>OSX_CSPROJ&#45;&gt;OSX_REF</title>
<path fill="none" stroke="black" stroke-width="2" d="M1297.57,-461.803C1266,-448.362 1221.89,-429.582 1187.73,-415.038"/>
<polygon fill="black" stroke="black" stroke-width="2" points="1188.95,-411.753 1178.38,-411.056 1186.21,-418.194 1188.95,-411.753"/>
<text text-anchor="middle" x="1288.96" y="-432.8" font-family="Times,serif" font-size="14.00">dotnet build</text>
</g>
<!-- OSX_CSPROJ&#45;&gt;OSX_NUPKG -->
<g id="edge28" class="edge"><title>OSX_CSPROJ&#45;&gt;OSX_NUPKG</title>
<path fill="none" stroke="black" stroke-width="2" d="M1384.94,-461.912C1406.99,-451.094 1430.83,-434.611 1441.96,-411 1453.93,-385.619 1445.04,-353.639 1435.6,-331.477"/>
<polygon fill="black" stroke="black" stroke-width="2" points="1438.77,-329.991 1431.45,-322.337 1432.4,-332.889 1438.77,-329.991"/>
<text text-anchor="middle" x="1478.96" y="-388.3" font-family="Times,serif" font-size="14.00">dotnet pack</text>
</g>
<!-- OSX_DLL&#45;&gt;OSX_NUPKG -->
<g id="edge27" class="edge"><title>OSX_DLL&#45;&gt;OSX_NUPKG</title>
<path fill="none" stroke="black" stroke-dasharray="5,2" d="M1344.75,-372.762C1359.29,-359.998 1378.87,-342.818 1394.67,-328.951"/>
<polygon fill="black" stroke="black" points="1397.34,-331.269 1402.54,-322.042 1392.72,-326.007 1397.34,-331.269"/>
<text text-anchor="middle" x="1393.96" y="-343.8" font-family="Times,serif" font-size="14.00">pack</text>
</g>
<!-- OSX_REF&#45;&gt;FOO_REF -->
<g id="edge48" class="edge"><title>OSX_REF&#45;&gt;FOO_REF</title>
<path fill="none" stroke="black" stroke-width="2" d="M1129.95,-372.596C1120.28,-346.353 1098.56,-299.031 1061.96,-278 991.736,-237.642 775.043,-283.895 697.964,-259 681.42,-253.657 664.968,-243.767 651.624,-234.264"/>
<polygon fill="black" stroke="black" stroke-width="2" points="653.453,-231.264 643.334,-228.127 649.288,-236.89 653.453,-231.264"/>
<text text-anchor="middle" x="1118.46" y="-300.3" font-family="Times,serif" font-size="14.00">copy</text>
</g>
<!-- OSX_NUPKG&#45;&gt;FOO_REF -->
<g id="edge62" class="edge"><title>OSX_NUPKG&#45;&gt;FOO_REF</title>
</g>
<!-- OSX_NUPKG&#45;&gt;FOO_CSPROJ -->
<g id="edge56" class="edge"><title>OSX_NUPKG&#45;&gt;FOO_CSPROJ</title>
<path fill="none" stroke="black" stroke-dasharray="5,2" d="M1349.43,-285.972C1205.24,-252.121 883.463,-176.581 732.328,-141.101"/>
<polygon fill="black" stroke="black" points="732.72,-137.598 722.185,-138.72 731.12,-144.413 732.72,-137.598"/>
<text text-anchor="middle" x="1283.96" y="-205.3" font-family="Times,serif" font-size="14.00">PackageReference</text>
</g>
<!-- WIN_LIBWRP -->
<g id="node22" class="node"><title>WIN_LIBWRP</title>
<polygon fill="royalblue" stroke="black" points="285.964,-674 69.9645,-674 69.9645,-670 65.9645,-670 65.9645,-666 69.9645,-666 69.9645,-644 65.9645,-644 65.9645,-640 69.9645,-640 69.9645,-636 285.964,-636 285.964,-674"/>
<polyline fill="none" stroke="black" points="69.9645,-670 73.9645,-670 73.9645,-666 69.9645,-666 "/>
<polyline fill="none" stroke="black" points="69.9645,-644 73.9645,-644 73.9645,-640 69.9645,-640 "/>
<text text-anchor="middle" x="177.964" y="-658.8" font-family="Times,serif" font-size="14.00">runtime.win&#45;x64.Google.OrTools.so</text>
<text text-anchor="middle" x="177.964" y="-643.8" font-family="Times,serif" font-size="14.00">runtimes/win&#45;x64/native</text>
</g>
<!-- WIN_LIB&#45;&gt;WIN_LIBWRP -->
<g id="edge33" class="edge"><title>WIN_LIB&#45;&gt;WIN_LIBWRP</title>
<path fill="none" stroke="black" stroke-width="2" d="M225.532,-724.974C217.085,-712.725 205.769,-696.317 196.293,-682.577"/>
<polygon fill="black" stroke="black" stroke-width="2" points="198.939,-680.248 190.381,-674.003 193.177,-684.223 198.939,-680.248"/>
<text text-anchor="middle" x="217.464" y="-695.8" font-family="Times,serif" font-size="14.00">ld</text>
</g>
<!-- WIN_CSPROJ -->
<g id="node23" class="node"><title>WIN_CSPROJ</title>
<polygon fill="darkviolet" stroke="black" points="371.464,-498 140.464,-498 140.464,-462 377.464,-462 377.464,-492 371.464,-498"/>
<polyline fill="none" stroke="black" points="371.464,-498 371.464,-492 "/>
<polyline fill="none" stroke="black" points="377.464,-492 371.464,-492 "/>
<text text-anchor="middle" x="258.964" y="-476.3" font-family="Times,serif" font-size="14.00">runtime.win&#45;x64.Google.OrTools.csproj</text>
</g>
<!-- WIN_LIB&#45;&gt;WIN_CSPROJ -->
<g id="edge36" class="edge"><title>WIN_LIB&#45;&gt;WIN_CSPROJ</title>
<path fill="none" stroke="black" stroke-dasharray="5,2" d="M258.854,-724.753C271.849,-711.996 287.467,-693.757 294.964,-674 319.892,-608.313 329.386,-579.8 299.964,-516 298.25,-512.282 295.924,-508.812 293.245,-505.615"/>
<polygon fill="black" stroke="black" points="295.512,-502.927 286.009,-498.242 290.516,-507.83 295.512,-502.927"/>
<text text-anchor="middle" x="338.464" y="-606.8" font-family="Times,serif" font-size="14.00">Content</text>
</g>
<!-- WIN_NUPKG -->
<g id="node26" class="node"><title>WIN_NUPKG</title>
<polygon fill="darkviolet" stroke="black" points="288.964,-322 285.964,-326 264.964,-326 261.964,-322 50.9645,-322 50.9645,-286 288.964,-286 288.964,-322"/>
<text text-anchor="middle" x="169.964" y="-300.3" font-family="Times,serif" font-size="14.00">runtime.win&#45;x64.Google.OrTools.nupkg</text>
</g>
<!-- WIN_LIB&#45;&gt;WIN_NUPKG -->
<g id="edge40" class="edge"><title>WIN_LIB&#45;&gt;WIN_NUPKG</title>
<path fill="none" stroke="black" stroke-dasharray="5,2" d="M160.543,-733.048C123.92,-724.022 83.3899,-706.811 60.9645,-674 -22.9061,-551.287 -21.9033,-450.088 77.9645,-340 82.516,-334.983 87.8639,-330.68 93.6523,-326.991"/>
<polygon fill="black" stroke="black" points="95.4438,-329.999 102.407,-322.013 91.9838,-323.913 95.4438,-329.999"/>
<text text-anchor="middle" x="14.9645" y="-519.8" font-family="Times,serif" font-size="14.00">pack</text>
</g>
<!-- WIN_CSWRP&#45;&gt;WIN_CSPROJ -->
<g id="edge35" class="edge"><title>WIN_CSWRP&#45;&gt;WIN_CSPROJ</title>
<path fill="none" stroke="black" stroke-dasharray="5,2" d="M250.558,-548.827C250.517,-539.157 250.778,-526.875 251.964,-516 252.241,-513.467 252.609,-510.844 253.033,-508.226"/>
<polygon fill="black" stroke="black" points="256.482,-508.822 254.862,-498.352 249.599,-507.547 256.482,-508.822"/>
<text text-anchor="middle" x="275.964" y="-519.8" font-family="Times,serif" font-size="14.00">Compile</text>
</g>
<!-- WIN_CPPWRP&#45;&gt;WIN_LIBWRP -->
<g id="edge32" class="edge"><title>WIN_CPPWRP&#45;&gt;WIN_LIBWRP</title>
<path fill="none" stroke="black" stroke-width="2" d="M361.191,-725.915C325.085,-712.138 274.07,-692.672 235.034,-677.777"/>
<polygon fill="black" stroke="black" stroke-width="2" points="235.975,-674.39 225.385,-674.095 233.48,-680.93 235.975,-674.39"/>
<text text-anchor="middle" x="317.964" y="-695.8" font-family="Times,serif" font-size="14.00">g++</text>
</g>
<!-- WIN_LIBWRP&#45;&gt;WIN_CSWRP -->
<g id="edge34" class="edge"><title>WIN_LIBWRP&#45;&gt;WIN_CSWRP</title>
<path fill="none" stroke="black" stroke-dasharray="5,2" d="M193.446,-635.762C204.082,-623.232 218.329,-606.447 229.983,-592.718"/>
<polygon fill="black" stroke="black" points="232.695,-594.931 236.498,-585.042 227.359,-590.401 232.695,-594.931"/>
<text text-anchor="middle" x="244.964" y="-606.8" font-family="Times,serif" font-size="14.00">PInvoke</text>
</g>
<!-- WIN_LIBWRP&#45;&gt;WIN_CSPROJ -->
<g id="edge37" class="edge"><title>WIN_LIBWRP&#45;&gt;WIN_CSPROJ</title>
<path fill="none" stroke="black" stroke-dasharray="5,2" d="M144.905,-635.739C138.877,-630.811 133.412,-624.895 129.964,-618 126.983,-612.037 128.116,-609.405 129.964,-603 142.777,-558.603 184.818,-524.368 217.463,-503.618"/>
<polygon fill="black" stroke="black" points="219.706,-506.347 226.389,-498.125 216.038,-500.385 219.706,-506.347"/>
<text text-anchor="middle" x="182.464" y="-563.3" font-family="Times,serif" font-size="14.00">Content</text>
</g>
<!-- WIN_LIBWRP&#45;&gt;WIN_NUPKG -->
<g id="edge41" class="edge"><title>WIN_LIBWRP&#45;&gt;WIN_NUPKG</title>
<path fill="none" stroke="black" stroke-dasharray="5,2" d="M169.788,-635.721C160.352,-614.718 144.291,-579.252 129.964,-549 101.706,-489.328 85.8763,-476.117 74.9645,-411 69.5464,-378.667 70.563,-361.894 94.9645,-340 100.406,-335.118 106.646,-330.794 113.153,-327"/>
<polygon fill="black" stroke="black" points="115.003,-329.978 122.142,-322.15 111.68,-323.818 115.003,-329.978"/>
<text text-anchor="middle" x="116.964" y="-476.3" font-family="Times,serif" font-size="14.00">pack</text>
</g>
<!-- WIN_DLL -->
<g id="node24" class="node"><title>WIN_DLL</title>
<polygon fill="darkviolet" stroke="black" points="375.964,-411 157.964,-411 157.964,-407 153.964,-407 153.964,-403 157.964,-403 157.964,-381 153.964,-381 153.964,-377 157.964,-377 157.964,-373 375.964,-373 375.964,-411"/>
<polyline fill="none" stroke="black" points="157.964,-407 161.964,-407 161.964,-403 157.964,-403 "/>
<polyline fill="none" stroke="black" points="157.964,-381 161.964,-381 161.964,-377 157.964,-377 "/>
<text text-anchor="middle" x="266.964" y="-395.8" font-family="Times,serif" font-size="14.00">Google.OrTools.dll</text>
<text text-anchor="middle" x="266.964" y="-380.8" font-family="Times,serif" font-size="14.00">runtimes/win&#45;x64/lib/netstandard2.0/</text>
</g>
<!-- WIN_CSPROJ&#45;&gt;WIN_DLL -->
<g id="edge38" class="edge"><title>WIN_CSPROJ&#45;&gt;WIN_DLL</title>
<path fill="none" stroke="black" stroke-width="2" d="M260.583,-461.597C261.657,-450.056 263.09,-434.647 264.327,-421.357"/>
<polygon fill="black" stroke="black" stroke-width="2" points="267.824,-421.549 265.265,-411.268 260.854,-420.901 267.824,-421.549"/>
<text text-anchor="middle" x="296.964" y="-432.8" font-family="Times,serif" font-size="14.00">dotnet build</text>
</g>
<!-- WIN_REF -->
<g id="node25" class="node"><title>WIN_REF</title>
<polygon fill="darkviolet" stroke="black" points="517.464,-411 394.464,-411 394.464,-407 390.464,-407 390.464,-403 394.464,-403 394.464,-381 390.464,-381 390.464,-377 394.464,-377 394.464,-373 517.464,-373 517.464,-411"/>
<polyline fill="none" stroke="black" points="394.464,-407 398.464,-407 398.464,-403 394.464,-403 "/>
<polyline fill="none" stroke="black" points="394.464,-381 398.464,-381 398.464,-377 394.464,-377 "/>
<text text-anchor="middle" x="455.964" y="-395.8" font-family="Times,serif" font-size="14.00">Google.OrTools.dll</text>
<text text-anchor="middle" x="455.964" y="-380.8" font-family="Times,serif" font-size="14.00">ref/netstandard2.0/</text>
</g>
<!-- WIN_CSPROJ&#45;&gt;WIN_REF -->
<g id="edge39" class="edge"><title>WIN_CSPROJ&#45;&gt;WIN_REF</title>
<path fill="none" stroke="black" stroke-width="2" d="M298.357,-461.803C329.016,-448.419 371.798,-429.743 405.054,-415.225"/>
<polygon fill="black" stroke="black" stroke-width="2" points="406.839,-418.265 414.603,-411.056 404.038,-411.85 406.839,-418.265"/>
<text text-anchor="middle" x="402.964" y="-432.8" font-family="Times,serif" font-size="14.00">dotnet build</text>
</g>
<!-- WIN_CSPROJ&#45;&gt;WIN_NUPKG -->
<g id="edge43" class="edge"><title>WIN_CSPROJ&#45;&gt;WIN_NUPKG</title>
<path fill="none" stroke="black" stroke-width="2" d="M158.314,-461.859C129.885,-451.864 102.065,-436.043 84.9645,-411 64.4766,-380.996 99.4087,-348.727 130.491,-327.778"/>
<polygon fill="black" stroke="black" stroke-width="2" points="132.628,-330.564 139.107,-322.181 128.814,-324.694 132.628,-330.564"/>
<text text-anchor="middle" x="116.964" y="-388.3" font-family="Times,serif" font-size="14.00">dotnet pack</text>
</g>
<!-- WIN_DLL&#45;&gt;WIN_NUPKG -->
<g id="edge42" class="edge"><title>WIN_DLL&#45;&gt;WIN_NUPKG</title>
<path fill="none" stroke="black" stroke-dasharray="5,2" d="M246.393,-372.762C231.997,-359.998 212.62,-342.818 196.979,-328.951"/>
<polygon fill="black" stroke="black" points="198.991,-326.057 189.186,-322.042 194.347,-331.295 198.991,-326.057"/>
<text text-anchor="middle" x="237.964" y="-343.8" font-family="Times,serif" font-size="14.00">pack</text>
</g>
<!-- WIN_REF&#45;&gt;FOO_REF -->
<g id="edge49" class="edge"><title>WIN_REF&#45;&gt;FOO_REF</title>
<path fill="none" stroke="black" stroke-width="2" d="M458.967,-372.89C463.943,-348.289 476.143,-304.362 502.964,-278 519.328,-261.917 530.726,-269.808 550.964,-259 564.359,-251.847 578.281,-242.674 590.211,-234.202"/>
<polygon fill="black" stroke="black" stroke-width="2" points="592.461,-236.895 598.51,-228.197 588.357,-231.224 592.461,-236.895"/>
<text text-anchor="middle" x="516.464" y="-300.3" font-family="Times,serif" font-size="14.00">copy</text>
</g>
<!-- WIN_NUPKG&#45;&gt;FOO_REF -->
<g id="edge63" class="edge"><title>WIN_NUPKG&#45;&gt;FOO_REF</title>
</g>
<!-- WIN_NUPKG&#45;&gt;FOO_CSPROJ -->
<g id="edge57" class="edge"><title>WIN_NUPKG&#45;&gt;FOO_CSPROJ</title>
<path fill="none" stroke="black" stroke-dasharray="5,2" d="M191.215,-285.905C223.132,-261.081 286.204,-215.27 346.964,-190 346.964,-190 479.698,-160.309 569.752,-140.166"/>
<polygon fill="black" stroke="black" points="570.695,-143.542 579.69,-137.943 569.167,-136.71 570.695,-143.542"/>
<text text-anchor="middle" x="396.964" y="-205.3" font-family="Times,serif" font-size="14.00">PackageReference</text>
</g>
<!-- FOO_REF&#45;&gt;FOO_CSPROJ -->
<g id="edge50" class="edge"><title>FOO_REF&#45;&gt;FOO_CSPROJ</title>
<path fill="none" stroke="black" stroke-dasharray="5,2" d="M628.115,-189.762C632.142,-177.817 637.474,-162.006 641.974,-148.661"/>
<polygon fill="black" stroke="black" points="645.339,-149.636 645.218,-139.042 638.706,-147.4 645.339,-149.636"/>
<text text-anchor="middle" x="661.464" y="-160.8" font-family="Times,serif" font-size="14.00">Content</text>
</g>
<!-- FOO_NUPKG -->
<g id="node30" class="node"><title>FOO_NUPKG</title>
<polygon fill="darkviolet" stroke="black" points="607.464,-52 604.464,-56 583.464,-56 580.464,-52 464.464,-52 464.464,-16 607.464,-16 607.464,-52"/>
<text text-anchor="middle" x="535.964" y="-30.3" font-family="Times,serif" font-size="14.00">Google.OrTools.nupkg</text>
</g>
<!-- FOO_REF&#45;&gt;FOO_NUPKG -->
<g id="edge53" class="edge"><title>FOO_REF&#45;&gt;FOO_NUPKG</title>
<path fill="none" stroke="black" stroke-dasharray="5,2" d="M592.333,-189.759C575.388,-177.612 555.472,-160.036 544.964,-139 533.049,-115.144 531.857,-84.354 532.999,-62.482"/>
<polygon fill="black" stroke="black" points="536.509,-62.4619 533.737,-52.2363 529.527,-61.959 536.509,-62.4619"/>
<text text-anchor="middle" x="557.964" y="-117.3" font-family="Times,serif" font-size="14.00">pack</text>
</g>
<!-- FOO_RT -->
<g id="node28" class="node"><title>FOO_RT</title>
<polygon fill="darkviolet" stroke="black" points="535.964,-227 455.964,-227 455.964,-191 541.964,-191 541.964,-221 535.964,-227"/>
<polyline fill="none" stroke="black" points="535.964,-227 535.964,-221 "/>
<polyline fill="none" stroke="black" points="541.964,-221 535.964,-221 "/>
<text text-anchor="middle" x="498.964" y="-205.3" font-family="Times,serif" font-size="14.00">runtime.json</text>
</g>
<!-- FOO_RT&#45;&gt;FOO_CSPROJ -->
<g id="edge51" class="edge"><title>FOO_RT&#45;&gt;FOO_CSPROJ</title>
<path fill="none" stroke="black" stroke-dasharray="5,2" d="M528.575,-190.901C545.862,-180.952 568.112,-168.202 587.964,-157 595.483,-152.757 603.526,-148.259 611.264,-143.951"/>
<polygon fill="black" stroke="black" points="613.117,-146.926 620.157,-139.008 609.716,-140.807 613.117,-146.926"/>
<text text-anchor="middle" x="609.464" y="-160.8" font-family="Times,serif" font-size="14.00">Content</text>
</g>
<!-- FOO_RT&#45;&gt;FOO_NUPKG -->
<g id="edge54" class="edge"><title>FOO_RT&#45;&gt;FOO_NUPKG</title>
<path fill="none" stroke="black" stroke-dasharray="5,2" d="M492.996,-190.84C486.576,-169.687 478.483,-132.874 487.964,-103 492.973,-87.2209 503.111,-71.9464 512.785,-59.8848"/>
<polygon fill="black" stroke="black" points="515.588,-61.9896 519.34,-52.0811 510.228,-57.4874 515.588,-61.9896"/>
<text text-anchor="middle" x="500.964" y="-117.3" font-family="Times,serif" font-size="14.00">pack</text>
</g>
<!-- FOO_CSPROJ&#45;&gt;FOO_NUPKG -->
<g id="edge52" class="edge"><title>FOO_CSPROJ&#45;&gt;FOO_NUPKG</title>
<path fill="none" stroke="black" stroke-width="2" d="M627.692,-102.799C610.312,-89.9529 586.373,-72.2583 567.308,-58.1671"/>
<polygon fill="black" stroke="black" stroke-width="2" points="569.324,-55.3048 559.202,-52.1754 565.163,-60.934 569.324,-55.3048"/>
<text text-anchor="middle" x="632.964" y="-73.8" font-family="Times,serif" font-size="14.00">dotnet pack</text>
</g>
</g>
</svg>
