<?xml version="1.0" encoding="UTF-8" standalone="no"?>
<!DOCTYPE svg PUBLIC "-//W3C//DTD SVG 1.1//EN"
 "http://www.w3.org/Graphics/SVG/1.1/DTD/svg11.dtd">
<!-- Generated by graphviz version 2.38.0 (20140413.2041)
 -->
<!-- Title: Make Pages: 1 -->
<svg width="1232pt" height="863pt"
 viewBox="0.00 0.00 1232.00 863.00" xmlns="http://www.w3.org/2000/svg" xmlns:xlink="http://www.w3.org/1999/xlink">
<g id="graph0" class="graph" transform="scale(1 1) rotate(0) translate(4 859)">
<title>Make</title>
<polygon fill="white" stroke="none" points="-4,4 -4,-859 1228,-859 1228,4 -4,4"/>
<g id="clust1" class="cluster"><title>clusterLinux</title>
<polygon fill="none" stroke="crimson" points="8,-278 8,-705 370,-705 370,-278 8,-278"/>
<text text-anchor="middle" x="189" y="-689.8" font-family="Times,serif" font-size="14.00">Linux Host</text>
</g>
<g id="clust2" class="cluster"><title>clusterOsx</title>
<polygon fill="none" stroke="forestgreen" points="462,-278 462,-705 816,-705 816,-278 462,-278"/>
<text text-anchor="middle" x="639" y="-689.8" font-family="Times,serif" font-size="14.00">macOS Host</text>
</g>
<g id="clust3" class="cluster"><title>clusterWin</title>
<polygon fill="none" stroke="dodgerblue" points="862,-278 862,-705 1216,-705 1216,-278 862,-278"/>
<text text-anchor="middle" x="1039" y="-689.8" font-family="Times,serif" font-size="14.00">Windows Host</text>
</g>
<g id="clust4" class="cluster"><title>clusterAny</title>
<polygon fill="none" stroke="dimgrey" points="413,-8 413,-259 695,-259 695,-8 413,-8"/>
<text text-anchor="middle" x="554" y="-243.8" font-family="Times,serif" font-size="14.00">Any Previous Host</text>
</g>
<!-- CPP -->
<g id="node1" class="node"><title>CPP</title>
<polygon fill="royalblue" stroke="black" points="887,-855 771,-855 771,-819 893,-819 893,-849 887,-855"/>
<polyline fill="none" stroke="black" points="887,-855 887,-849 "/>
<polyline fill="none" stroke="black" points="893,-849 887,-849 "/>
<text text-anchor="middle" x="832" y="-833.3" font-family="Times,serif" font-size="14.00">ortools.h/ortools.cc</text>
</g>
<!-- SWIG -->
<g id="node2" class="node"><title>SWIG</title>
<polygon fill="white" stroke="black" points="774.5,-768 679.5,-768 679.5,-732 780.5,-732 780.5,-762 774.5,-768"/>
<polyline fill="none" stroke="black" points="774.5,-768 774.5,-762 "/>
<polyline fill="none" stroke="black" points="780.5,-762 774.5,-762 "/>
<text text-anchor="middle" x="730" y="-746.3" font-family="Times,serif" font-size="14.00">csharp/ortools.i</text>
</g>
<!-- CPP&#45;&gt;SWIG -->
<g id="edge1" class="edge"><title>CPP&#45;&gt;SWIG</title>
<path fill="none" stroke="black" stroke-dasharray="5,2" d="M811.359,-818.799C796.151,-806.126 775.28,-788.734 758.485,-774.738"/>
<polygon fill="black" stroke="black" points="760.533,-771.889 750.611,-768.175 756.052,-777.266 760.533,-771.889"/>
<text text-anchor="middle" x="808" y="-789.8" font-family="Times,serif" font-size="14.00">include</text>
</g>
<!-- LINUX_LIB -->
<g id="node3" class="node"><title>LINUX_LIB</title>
<polygon fill="royalblue" stroke="black" points="361.5,-674 200.5,-674 200.5,-670 196.5,-670 196.5,-666 200.5,-666 200.5,-644 196.5,-644 196.5,-640 200.5,-640 200.5,-636 361.5,-636 361.5,-674"/>
<polyline fill="none" stroke="black" points="200.5,-670 204.5,-670 204.5,-666 200.5,-666 "/>
<polyline fill="none" stroke="black" points="200.5,-644 204.5,-644 204.5,-640 200.5,-640 "/>
<text text-anchor="middle" x="281" y="-658.8" font-family="Times,serif" font-size="14.00">libortools.so</text>
<text text-anchor="middle" x="281" y="-643.8" font-family="Times,serif" font-size="14.00">runtimes/linux&#45;x64/native/</text>
</g>
<!-- CPP&#45;&gt;LINUX_LIB -->
<g id="edge10" class="edge"><title>CPP&#45;&gt;LINUX_LIB</title>
<path fill="none" stroke="black" stroke-width="2" d="M770.729,-822.807C685.093,-803.494 525.457,-764.292 395,-714 369.618,-704.215 342.424,-690.514 320.964,-678.885"/>
<polygon fill="black" stroke="black" stroke-width="2" points="322.591,-675.786 312.14,-674.046 319.225,-681.923 322.591,-675.786"/>
<text text-anchor="middle" x="577.5" y="-746.3" font-family="Times,serif" font-size="14.00">make_cc</text>
</g>
<!-- OSX_LIB -->
<g id="node8" class="node"><title>OSX_LIB</title>
<polygon fill="royalblue" stroke="black" points="806,-674 654,-674 654,-670 650,-670 650,-666 654,-666 654,-644 650,-644 650,-640 654,-640 654,-636 806,-636 806,-674"/>
<polyline fill="none" stroke="black" points="654,-670 658,-670 658,-666 654,-666 "/>
<polyline fill="none" stroke="black" points="654,-644 658,-644 658,-640 654,-640 "/>
<text text-anchor="middle" x="730" y="-658.8" font-family="Times,serif" font-size="14.00">libortools.dylib</text>
<text text-anchor="middle" x="730" y="-643.8" font-family="Times,serif" font-size="14.00">runtimes/osx&#45;x64/native/</text>
</g>
<!-- CPP&#45;&gt;OSX_LIB -->
<g id="edge19" class="edge"><title>CPP&#45;&gt;OSX_LIB</title>
<path fill="none" stroke="black" stroke-width="2" d="M834.721,-818.877C835.628,-809.002 835.628,-796.502 832,-786 817.483,-743.981 783.164,-705.196 758.337,-681.128"/>
<polygon fill="black" stroke="black" stroke-width="2" points="760.635,-678.483 750.97,-674.143 755.819,-683.563 760.635,-678.483"/>
<text text-anchor="middle" x="849.5" y="-746.3" font-family="Times,serif" font-size="14.00">make_cc</text>
</g>
<!-- WIN_LIB -->
<g id="node13" class="node"><title>WIN_LIB</title>
<polygon fill="royalblue" stroke="black" points="1047,-674 893,-674 893,-670 889,-670 889,-666 893,-666 893,-644 889,-644 889,-640 893,-640 893,-636 1047,-636 1047,-674"/>
<polyline fill="none" stroke="black" points="893,-670 897,-670 897,-666 893,-666 "/>
<polyline fill="none" stroke="black" points="893,-644 897,-644 897,-640 893,-640 "/>
<text text-anchor="middle" x="970" y="-658.8" font-family="Times,serif" font-size="14.00">libortools.dll</text>
<text text-anchor="middle" x="970" y="-643.8" font-family="Times,serif" font-size="14.00">runtimes/win&#45;x64/native/</text>
</g>
<!-- CPP&#45;&gt;WIN_LIB -->
<g id="edge28" class="edge"><title>CPP&#45;&gt;WIN_LIB</title>
<path fill="none" stroke="black" stroke-width="2" d="M845.232,-818.741C869.464,-787.133 921.106,-719.775 949.771,-682.386"/>
<polygon fill="black" stroke="black" stroke-width="2" points="952.889,-684.071 956.196,-674.005 947.334,-679.812 952.889,-684.071"/>
<text text-anchor="middle" x="935.5" y="-746.3" font-family="Times,serif" font-size="14.00">make_cc</text>
</g>
<!-- SWIG&#45;&gt;LINUX_LIB -->
<g id="edge40" class="edge"><title>SWIG&#45;&gt;LINUX_LIB</title>
</g>
<!-- LINUX_CS -->
<g id="node4" class="node"><title>LINUX_CS</title>
<polygon fill="darkviolet" stroke="black" points="355.5,-585 292.5,-585 292.5,-549 361.5,-549 361.5,-579 355.5,-585"/>
<polyline fill="none" stroke="black" points="355.5,-585 355.5,-579 "/>
<polyline fill="none" stroke="black" points="361.5,-579 355.5,-579 "/>
<text text-anchor="middle" x="327" y="-563.3" font-family="Times,serif" font-size="14.00">ortools.cs</text>
</g>
<!-- SWIG&#45;&gt;LINUX_CS -->
<g id="edge9" class="edge"><title>SWIG&#45;&gt;LINUX_CS</title>
<path fill="none" stroke="black" stroke-width="2" d="M679.268,-746.273C605.369,-741.511 472.507,-729.73 432,-705 384.419,-675.952 394.093,-646.315 359,-603 356.26,-599.617 353.286,-596.139 350.293,-592.749"/>
<polygon fill="black" stroke="black" stroke-width="2" points="352.672,-590.161 343.372,-585.084 347.476,-594.852 352.672,-590.161"/>
<text text-anchor="middle" x="445" y="-651.3" font-family="Times,serif" font-size="14.00">swig</text>
</g>
<!-- SWIG&#45;&gt;OSX_LIB -->
<g id="edge41" class="edge"><title>SWIG&#45;&gt;OSX_LIB</title>
</g>
<!-- OSX_CS -->
<g id="node9" class="node"><title>OSX_CS</title>
<polygon fill="darkviolet" stroke="black" points="647.5,-585 584.5,-585 584.5,-549 653.5,-549 653.5,-579 647.5,-585"/>
<polyline fill="none" stroke="black" points="647.5,-585 647.5,-579 "/>
<polyline fill="none" stroke="black" points="653.5,-579 647.5,-579 "/>
<text text-anchor="middle" x="619" y="-563.3" font-family="Times,serif" font-size="14.00">ortools.cs</text>
</g>
<!-- SWIG&#45;&gt;OSX_CS -->
<g id="edge18" class="edge"><title>SWIG&#45;&gt;OSX_CS</title>
<path fill="none" stroke="black" stroke-width="2" d="M679.417,-741.915C656.985,-735.977 632.629,-725.062 619,-705 596.882,-672.441 603.36,-624.727 610.706,-595.057"/>
<polygon fill="black" stroke="black" stroke-width="2" points="614.094,-595.934 613.294,-585.37 607.331,-594.127 614.094,-595.934"/>
<text text-anchor="middle" x="632" y="-651.3" font-family="Times,serif" font-size="14.00">swig</text>
</g>
<!-- SWIG&#45;&gt;WIN_LIB -->
<g id="edge42" class="edge"><title>SWIG&#45;&gt;WIN_LIB</title>
</g>
<!-- WIN_CS -->
<g id="node14" class="node"><title>WIN_CS</title>
<polygon fill="darkviolet" stroke="black" points="946.5,-585 883.5,-585 883.5,-549 952.5,-549 952.5,-579 946.5,-585"/>
<polyline fill="none" stroke="black" points="946.5,-585 946.5,-579 "/>
<polyline fill="none" stroke="black" points="952.5,-579 946.5,-579 "/>
<text text-anchor="middle" x="918" y="-563.3" font-family="Times,serif" font-size="14.00">ortools.cs</text>
</g>
<!-- SWIG&#45;&gt;WIN_CS -->
<g id="edge27" class="edge"><title>SWIG&#45;&gt;WIN_CS</title>
<path fill="none" stroke="black" stroke-width="2" d="M778.286,-731.986C792.883,-725.203 808.162,-716.276 820,-705 845.351,-680.854 837.853,-664.632 858,-636 868.805,-620.646 882.562,-604.841 894.178,-592.337"/>
<polygon fill="black" stroke="black" stroke-width="2" points="896.772,-594.688 901.088,-585.012 891.68,-589.884 896.772,-594.688"/>
<text text-anchor="middle" x="871" y="-651.3" font-family="Times,serif" font-size="14.00">swig</text>
</g>
<!-- LINUX_LIB&#45;&gt;LINUX_CS -->
<g id="edge2" class="edge"><title>LINUX_LIB&#45;&gt;LINUX_CS</title>
<path fill="none" stroke="black" stroke-dasharray="5,2" d="M290.755,-635.762C297.27,-623.583 305.934,-607.385 313.158,-593.879"/>
<polygon fill="black" stroke="black" points="316.254,-595.511 317.884,-585.042 310.082,-592.209 316.254,-595.511"/>
<text text-anchor="middle" x="332" y="-606.8" font-family="Times,serif" font-size="14.00">PInvoke</text>
</g>
<!-- LINUX_CSPROJ -->
<g id="node5" class="node"><title>LINUX_CSPROJ</title>
<polygon fill="darkviolet" stroke="black" points="293.5,-498 54.5,-498 54.5,-462 299.5,-462 299.5,-492 293.5,-498"/>
<polyline fill="none" stroke="black" points="293.5,-498 293.5,-492 "/>
<polyline fill="none" stroke="black" points="299.5,-492 293.5,-492 "/>
<text text-anchor="middle" x="177" y="-476.3" font-family="Times,serif" font-size="14.00">runtime.linux&#45;x64.Google.OrTools.csproj</text>
</g>
<!-- LINUX_LIB&#45;&gt;LINUX_CSPROJ -->
<g id="edge4" class="edge"><title>LINUX_LIB&#45;&gt;LINUX_CSPROJ</title>
<path fill="none" stroke="black" stroke-dasharray="5,2" d="M264.214,-635.916C252.321,-622.521 236.501,-603.464 225,-585 209.479,-560.083 195.897,-529.32 187.179,-507.739"/>
<polygon fill="black" stroke="black" points="190.352,-506.245 183.415,-498.237 183.844,-508.823 190.352,-506.245"/>
<text text-anchor="middle" x="246.5" y="-563.3" font-family="Times,serif" font-size="14.00">Content</text>
</g>
<!-- LINUX_NUPKG -->
<g id="node7" class="node"><title>LINUX_NUPKG</title>
<polygon fill="darkviolet" stroke="black" points="359.5,-322 356.5,-326 335.5,-326 332.5,-322 114.5,-322 114.5,-286 359.5,-286 359.5,-322"/>
<text text-anchor="middle" x="237" y="-300.3" font-family="Times,serif" font-size="14.00">runtime.linux&#45;x64.Google.OrTools.nupkg</text>
</g>
<!-- LINUX_LIB&#45;&gt;LINUX_NUPKG -->
<g id="edge6" class="edge"><title>LINUX_LIB&#45;&gt;LINUX_NUPKG</title>
<path fill="none" stroke="black" stroke-dasharray="5,2" d="M276.094,-635.737C269.714,-608.037 261.623,-554.551 282,-516 288.568,-503.574 298.816,-508.639 308,-498 346.391,-453.528 380.012,-424.087 351,-373 339.203,-352.227 318.268,-337.128 297.53,-326.513"/>
<polygon fill="black" stroke="black" points="298.894,-323.285 288.366,-322.092 295.852,-329.59 298.894,-323.285"/>
<text text-anchor="middle" x="352" y="-476.3" font-family="Times,serif" font-size="14.00">pack</text>
</g>
<!-- LINUX_CS&#45;&gt;LINUX_CSPROJ -->
<g id="edge3" class="edge"><title>LINUX_CS&#45;&gt;LINUX_CSPROJ</title>
<path fill="none" stroke="black" stroke-dasharray="5,2" d="M296.645,-548.799C273.391,-535.622 241.134,-517.343 215.972,-503.084"/>
<polygon fill="black" stroke="black" points="217.479,-499.915 207.053,-498.03 214.028,-506.005 217.479,-499.915"/>
<text text-anchor="middle" x="285" y="-519.8" font-family="Times,serif" font-size="14.00">Compile</text>
</g>
<!-- LINUX_DLL -->
<g id="node6" class="node"><title>LINUX_DLL</title>
<polygon fill="darkviolet" stroke="black" points="342,-411 116,-411 116,-407 112,-407 112,-403 116,-403 116,-381 112,-381 112,-377 116,-377 116,-373 342,-373 342,-411"/>
<polyline fill="none" stroke="black" points="116,-407 120,-407 120,-403 116,-403 "/>
<polyline fill="none" stroke="black" points="116,-381 120,-381 120,-377 116,-377 "/>
<text text-anchor="middle" x="229" y="-395.8" font-family="Times,serif" font-size="14.00">Google.OrTools.dll</text>
<text text-anchor="middle" x="229" y="-380.8" font-family="Times,serif" font-size="14.00">runtimes/linux&#45;x64/lib/netstandard2.0/</text>
</g>
<!-- LINUX_CSPROJ&#45;&gt;LINUX_DLL -->
<g id="edge5" class="edge"><title>LINUX_CSPROJ&#45;&gt;LINUX_DLL</title>
<path fill="none" stroke="black" stroke-width="2" d="M187.523,-461.597C194.708,-449.713 204.374,-433.728 212.566,-420.179"/>
<polygon fill="black" stroke="black" stroke-width="2" points="215.775,-421.636 217.954,-411.268 209.785,-418.014 215.775,-421.636"/>
<text text-anchor="middle" x="240" y="-432.8" font-family="Times,serif" font-size="14.00">dotnet build</text>
</g>
<!-- LINUX_CSPROJ&#45;&gt;LINUX_NUPKG -->
<g id="edge8" class="edge"><title>LINUX_CSPROJ&#45;&gt;LINUX_NUPKG</title>
<path fill="none" stroke="black" stroke-width="2" d="M123.472,-461.965C75.1245,-443.64 15.4607,-411.835 43,-373 58.8126,-350.702 82.5295,-335.659 108.005,-325.527"/>
<polygon fill="black" stroke="black" stroke-width="2" points="109.306,-328.777 117.459,-322.012 106.866,-322.216 109.306,-328.777"/>
<text text-anchor="middle" x="75" y="-388.3" font-family="Times,serif" font-size="14.00">dotnet pack</text>
</g>
<!-- FOO_REF -->
<g id="node18" class="node"><title>FOO_REF</title>
<polygon fill="darkviolet" stroke="black" points="544.5,-228 421.5,-228 421.5,-224 417.5,-224 417.5,-220 421.5,-220 421.5,-198 417.5,-198 417.5,-194 421.5,-194 421.5,-190 544.5,-190 544.5,-228"/>
<polyline fill="none" stroke="black" points="421.5,-224 425.5,-224 425.5,-220 421.5,-220 "/>
<polyline fill="none" stroke="black" points="421.5,-198 425.5,-198 425.5,-194 421.5,-194 "/>
<text text-anchor="middle" x="483" y="-212.8" font-family="Times,serif" font-size="14.00">Google.OrTools.dll</text>
<text text-anchor="middle" x="483" y="-197.8" font-family="Times,serif" font-size="14.00">ref/netstandard2.0/</text>
</g>
<!-- LINUX_CSPROJ&#45;&gt;FOO_REF -->
<g id="edge29" class="edge"><title>LINUX_CSPROJ&#45;&gt;FOO_REF</title>
<path fill="none" stroke="black" stroke-width="2" d="M254.171,-461.875C287.005,-451.511 323.891,-435.422 351,-411 378.073,-386.611 372.422,-370.733 392,-340 415.405,-303.259 444.615,-262.308 463.53,-236.365"/>
<polygon fill="black" stroke="black" stroke-width="2" points="466.445,-238.308 469.526,-228.171 460.796,-234.174 466.445,-238.308"/>
<text text-anchor="middle" x="425" y="-343.8" font-family="Times,serif" font-size="14.00">dotnet build</text>
</g>
<!-- LINUX_DLL&#45;&gt;LINUX_NUPKG -->
<g id="edge7" class="edge"><title>LINUX_DLL&#45;&gt;LINUX_NUPKG</title>
<path fill="none" stroke="black" stroke-dasharray="5,2" d="M230.697,-372.762C231.797,-360.934 233.25,-345.316 234.483,-332.055"/>
<polygon fill="black" stroke="black" points="237.973,-332.323 235.415,-322.042 231.003,-331.675 237.973,-332.323"/>
<text text-anchor="middle" x="247" y="-343.8" font-family="Times,serif" font-size="14.00">pack</text>
</g>
<!-- LINUX_NUPKG&#45;&gt;FOO_REF -->
<g id="edge43" class="edge"><title>LINUX_NUPKG&#45;&gt;FOO_REF</title>
</g>
<!-- FOO_CSPROJ -->
<g id="node20" class="node"><title>FOO_CSPROJ</title>
<polygon fill="darkviolet" stroke="black" points="681,-139 545,-139 545,-103 687,-103 687,-133 681,-139"/>
<polyline fill="none" stroke="black" points="681,-139 681,-133 "/>
<polyline fill="none" stroke="black" points="687,-133 681,-133 "/>
<text text-anchor="middle" x="616" y="-117.3" font-family="Times,serif" font-size="14.00">Google.OrTools.csproj</text>
</g>
<!-- LINUX_NUPKG&#45;&gt;FOO_CSPROJ -->
<g id="edge37" class="edge"><title>LINUX_NUPKG&#45;&gt;FOO_CSPROJ</title>
<path fill="none" stroke="black" stroke-dasharray="5,2" d="M243.498,-285.805C253.933,-260.638 276.885,-214.15 312,-190 312,-190 444.734,-160.309 534.787,-140.166"/>
<polygon fill="black" stroke="black" points="535.731,-143.542 544.726,-137.943 534.203,-136.71 535.731,-143.542"/>
<text text-anchor="middle" x="362" y="-205.3" font-family="Times,serif" font-size="14.00">PackageReference</text>
</g>
<!-- OSX_LIB&#45;&gt;OSX_CS -->
<g id="edge11" class="edge"><title>OSX_LIB&#45;&gt;OSX_CS</title>
<path fill="none" stroke="black" stroke-dasharray="5,2" d="M690.621,-635.856C681.16,-630.697 671.376,-624.651 663,-618 653.942,-610.807 645.244,-601.602 638.009,-593.054"/>
<polygon fill="black" stroke="black" points="640.59,-590.682 631.556,-585.148 635.168,-595.108 640.59,-590.682"/>
<text text-anchor="middle" x="686" y="-606.8" font-family="Times,serif" font-size="14.00">PInvoke</text>
</g>
<!-- OSX_CSPROJ -->
<g id="node10" class="node"><title>OSX_CSPROJ</title>
<polygon fill="darkviolet" stroke="black" points="731,-498 501,-498 501,-462 737,-462 737,-492 731,-498"/>
<polyline fill="none" stroke="black" points="731,-498 731,-492 "/>
<polyline fill="none" stroke="black" points="737,-492 731,-492 "/>
<text text-anchor="middle" x="619" y="-476.3" font-family="Times,serif" font-size="14.00">runtime.osx&#45;x64.Google.OrTools.csproj</text>
</g>
<!-- OSX_LIB&#45;&gt;OSX_CSPROJ -->
<g id="edge13" class="edge"><title>OSX_LIB&#45;&gt;OSX_CSPROJ</title>
<path fill="none" stroke="black" stroke-dasharray="5,2" d="M725.793,-635.669C718.566,-607.403 701.539,-552.62 671,-516 667.428,-511.717 663.202,-507.746 658.728,-504.134"/>
<polygon fill="black" stroke="black" points="660.61,-501.172 650.492,-498.029 656.442,-506.796 660.61,-501.172"/>
<text text-anchor="middle" x="731.5" y="-563.3" font-family="Times,serif" font-size="14.00">Content</text>
</g>
<!-- OSX_NUPKG -->
<g id="node12" class="node"><title>OSX_NUPKG</title>
<polygon fill="darkviolet" stroke="black" points="803,-322 800,-326 779,-326 776,-322 567,-322 567,-286 803,-286 803,-322"/>
<text text-anchor="middle" x="685" y="-300.3" font-family="Times,serif" font-size="14.00">runtime.osx&#45;x64.Google.OrTools.nupkg</text>
</g>
<!-- OSX_LIB&#45;&gt;OSX_NUPKG -->
<g id="edge15" class="edge"><title>OSX_LIB&#45;&gt;OSX_NUPKG</title>
<path fill="none" stroke="black" stroke-dasharray="5,2" d="M739.203,-635.837C761.313,-589.5 812.475,-464.128 769,-373 760.056,-354.253 743.14,-339.004 726.818,-327.733"/>
<polygon fill="black" stroke="black" points="728.665,-324.759 718.383,-322.204 724.828,-330.613 728.665,-324.759"/>
<text text-anchor="middle" x="799" y="-476.3" font-family="Times,serif" font-size="14.00">pack</text>
</g>
<!-- OSX_CS&#45;&gt;OSX_CSPROJ -->
<g id="edge12" class="edge"><title>OSX_CS&#45;&gt;OSX_CSPROJ</title>
<path fill="none" stroke="black" stroke-dasharray="5,2" d="M619,-548.799C619,-537.163 619,-521.548 619,-508.237"/>
<polygon fill="black" stroke="black" points="622.5,-508.175 619,-498.175 615.5,-508.175 622.5,-508.175"/>
<text text-anchor="middle" x="643" y="-519.8" font-family="Times,serif" font-size="14.00">Compile</text>
</g>
<!-- OSX_DLL -->
<g id="node11" class="node"><title>OSX_DLL</title>
<polygon fill="darkviolet" stroke="black" points="687.5,-411 470.5,-411 470.5,-407 466.5,-407 466.5,-403 470.5,-403 470.5,-381 466.5,-381 466.5,-377 470.5,-377 470.5,-373 687.5,-373 687.5,-411"/>
<polyline fill="none" stroke="black" points="470.5,-407 474.5,-407 474.5,-403 470.5,-403 "/>
<polyline fill="none" stroke="black" points="470.5,-381 474.5,-381 474.5,-377 470.5,-377 "/>
<text text-anchor="middle" x="579" y="-395.8" font-family="Times,serif" font-size="14.00">Google.OrTools.dll</text>
<text text-anchor="middle" x="579" y="-380.8" font-family="Times,serif" font-size="14.00">runtimes/osx&#45;x64/lib/netstandard2.0/</text>
</g>
<!-- OSX_CSPROJ&#45;&gt;OSX_DLL -->
<g id="edge14" class="edge"><title>OSX_CSPROJ&#45;&gt;OSX_DLL</title>
<path fill="none" stroke="black" stroke-width="2" d="M610.905,-461.597C605.431,-449.827 598.086,-434.035 591.823,-420.57"/>
<polygon fill="black" stroke="black" stroke-width="2" points="594.888,-418.859 587.497,-411.268 588.541,-421.811 594.888,-418.859"/>
<text text-anchor="middle" x="636" y="-432.8" font-family="Times,serif" font-size="14.00">dotnet build</text>
</g>
<!-- OSX_CSPROJ&#45;&gt;OSX_NUPKG -->
<g id="edge17" class="edge"><title>OSX_CSPROJ&#45;&gt;OSX_NUPKG</title>
<path fill="none" stroke="black" stroke-width="2" d="M651.548,-461.872C669.304,-450.309 689.052,-433.12 696,-411 704.148,-385.061 699.316,-353.973 693.722,-332.195"/>
<polygon fill="black" stroke="black" stroke-width="2" points="697.025,-331.008 690.968,-322.315 690.282,-332.887 697.025,-331.008"/>
<text text-anchor="middle" x="733" y="-388.3" font-family="Times,serif" font-size="14.00">dotnet pack</text>
</g>
<!-- OSX_CSPROJ&#45;&gt;FOO_REF -->
<g id="edge30" class="edge"><title>OSX_CSPROJ&#45;&gt;FOO_REF</title>
<path fill="none" stroke="black" stroke-width="2" d="M533.199,-461.959C505.398,-451.934 477.502,-436.068 461,-411 451.7,-396.873 468.871,-290.101 477.928,-238.181"/>
<polygon fill="black" stroke="black" stroke-width="2" points="481.384,-238.735 479.673,-228.279 474.49,-237.52 481.384,-238.735"/>
<text text-anchor="middle" x="496" y="-343.8" font-family="Times,serif" font-size="14.00">dotnet build</text>
</g>
<!-- OSX_DLL&#45;&gt;OSX_NUPKG -->
<g id="edge16" class="edge"><title>OSX_DLL&#45;&gt;OSX_NUPKG</title>
<path fill="none" stroke="black" stroke-dasharray="5,2" d="M601.221,-372.972C617.081,-360.104 638.568,-342.671 655.811,-328.682"/>
<polygon fill="black" stroke="black" points="658.331,-331.144 663.891,-322.126 653.921,-325.708 658.331,-331.144"/>
<text text-anchor="middle" x="655" y="-343.8" font-family="Times,serif" font-size="14.00">pack</text>
</g>
<!-- OSX_NUPKG&#45;&gt;FOO_REF -->
<g id="edge44" class="edge"><title>OSX_NUPKG&#45;&gt;FOO_REF</title>
</g>
<!-- OSX_NUPKG&#45;&gt;FOO_CSPROJ -->
<g id="edge38" class="edge"><title>OSX_NUPKG&#45;&gt;FOO_CSPROJ</title>
<path fill="none" stroke="black" stroke-dasharray="5,2" d="M685.674,-285.941C686.036,-257.271 683.419,-198.493 659,-157 656.686,-153.067 653.754,-149.391 650.513,-146.011"/>
<polygon fill="black" stroke="black" points="652.76,-143.322 643.043,-139.1 648.006,-148.46 652.76,-143.322"/>
<text text-anchor="middle" x="736" y="-205.3" font-family="Times,serif" font-size="14.00">PackageReference</text>
</g>
<!-- WIN_LIB&#45;&gt;WIN_CS -->
<g id="edge20" class="edge"><title>WIN_LIB&#45;&gt;WIN_CS</title>
<path fill="none" stroke="black" stroke-dasharray="5,2" d="M951.743,-635.925C946.859,-630.47 941.869,-624.26 938,-618 933.576,-610.842 929.791,-602.538 926.742,-594.777"/>
<polygon fill="black" stroke="black" points="930.018,-593.543 923.281,-585.365 923.448,-595.959 930.018,-593.543"/>
<text text-anchor="middle" x="961" y="-606.8" font-family="Times,serif" font-size="14.00">PInvoke</text>
</g>
<!-- WIN_CSPROJ -->
<g id="node15" class="node"><title>WIN_CSPROJ</title>
<polygon fill="darkviolet" stroke="black" points="1101.5,-498 870.5,-498 870.5,-462 1107.5,-462 1107.5,-492 1101.5,-498"/>
<polyline fill="none" stroke="black" points="1101.5,-498 1101.5,-492 "/>
<polyline fill="none" stroke="black" points="1107.5,-492 1101.5,-492 "/>
<text text-anchor="middle" x="989" y="-476.3" font-family="Times,serif" font-size="14.00">runtime.win&#45;x64.Google.OrTools.csproj</text>
</g>
<!-- WIN_LIB&#45;&gt;WIN_CSPROJ -->
<g id="edge22" class="edge"><title>WIN_LIB&#45;&gt;WIN_CSPROJ</title>
<path fill="none" stroke="black" stroke-dasharray="5,2" d="M978.486,-635.676C980.686,-630.115 982.779,-623.911 984,-618 991.735,-580.55 991.73,-536.143 990.654,-508.264"/>
<polygon fill="black" stroke="black" points="994.142,-507.918 990.185,-498.09 987.15,-508.241 994.142,-507.918"/>
<text text-anchor="middle" x="1011.5" y="-563.3" font-family="Times,serif" font-size="14.00">Content</text>
</g>
<!-- WIN_NUPKG -->
<g id="node17" class="node"><title>WIN_NUPKG</title>
<polygon fill="darkviolet" stroke="black" points="1108,-322 1105,-326 1084,-326 1081,-322 870,-322 870,-286 1108,-286 1108,-322"/>
<text text-anchor="middle" x="989" y="-300.3" font-family="Times,serif" font-size="14.00">runtime.win&#45;x64.Google.OrTools.nupkg</text>
</g>
<!-- WIN_LIB&#45;&gt;WIN_NUPKG -->
<g id="edge24" class="edge"><title>WIN_LIB&#45;&gt;WIN_NUPKG</title>
<path fill="none" stroke="black" stroke-dasharray="5,2" d="M994.834,-635.823C1041.79,-599.536 1141.44,-512.795 1170,-411 1174.56,-394.739 1179.62,-386.884 1170,-373 1154.51,-350.634 1130.69,-335.614 1105.36,-325.531"/>
<polygon fill="black" stroke="black" points="1106.57,-322.245 1095.97,-322.035 1104.12,-328.805 1106.57,-322.245"/>
<text text-anchor="middle" x="1161" y="-476.3" font-family="Times,serif" font-size="14.00">pack</text>
</g>
<!-- WIN_CS&#45;&gt;WIN_CSPROJ -->
<g id="edge21" class="edge"><title>WIN_CS&#45;&gt;WIN_CSPROJ</title>
<path fill="none" stroke="black" stroke-dasharray="5,2" d="M921.28,-548.91C923.922,-538.567 928.472,-525.573 936,-516 939.408,-511.666 943.506,-507.69 947.896,-504.097"/>
<polygon fill="black" stroke="black" points="950.09,-506.827 956.024,-498.05 945.912,-501.211 950.09,-506.827"/>
<text text-anchor="middle" x="960" y="-519.8" font-family="Times,serif" font-size="14.00">Compile</text>
</g>
<!-- WIN_DLL -->
<g id="node16" class="node"><title>WIN_DLL</title>
<polygon fill="darkviolet" stroke="black" points="1088,-411 870,-411 870,-407 866,-407 866,-403 870,-403 870,-381 866,-381 866,-377 870,-377 870,-373 1088,-373 1088,-411"/>
<polyline fill="none" stroke="black" points="870,-407 874,-407 874,-403 870,-403 "/>
<polyline fill="none" stroke="black" points="870,-381 874,-381 874,-377 870,-377 "/>
<text text-anchor="middle" x="979" y="-395.8" font-family="Times,serif" font-size="14.00">Google.OrTools.dll</text>
<text text-anchor="middle" x="979" y="-380.8" font-family="Times,serif" font-size="14.00">runtimes/win&#45;x64/lib/netstandard2.0/</text>
</g>
<!-- WIN_CSPROJ&#45;&gt;WIN_DLL -->
<g id="edge23" class="edge"><title>WIN_CSPROJ&#45;&gt;WIN_DLL</title>
<path fill="none" stroke="black" stroke-width="2" d="M986.976,-461.597C985.634,-450.056 983.843,-434.647 982.297,-421.357"/>
<polygon fill="black" stroke="black" stroke-width="2" points="985.756,-420.797 981.124,-411.268 978.803,-421.605 985.756,-420.797"/>
<text text-anchor="middle" x="1017" y="-432.8" font-family="Times,serif" font-size="14.00">dotnet build</text>
</g>
<!-- WIN_CSPROJ&#45;&gt;WIN_NUPKG -->
<g id="edge26" class="edge"><title>WIN_CSPROJ&#45;&gt;WIN_NUPKG</title>
<path fill="none" stroke="black" stroke-width="2" d="M1038.38,-461.873C1060.98,-451.142 1085.29,-434.747 1097,-411 1104.47,-395.853 1105.16,-387.785 1097,-373 1085.72,-352.562 1065.43,-337.429 1045.46,-326.696"/>
<polygon fill="black" stroke="black" stroke-width="2" points="1046.84,-323.472 1036.34,-322.071 1043.67,-329.716 1046.84,-323.472"/>
<text text-anchor="middle" x="1134" y="-388.3" font-family="Times,serif" font-size="14.00">dotnet pack</text>
</g>
<!-- WIN_CSPROJ&#45;&gt;FOO_REF -->
<g id="edge31" class="edge"><title>WIN_CSPROJ&#45;&gt;FOO_REF</title>
<path fill="none" stroke="black" stroke-width="2" d="M936.26,-461.927C910.3,-451.079 880.479,-434.565 861,-411 821.591,-363.323 868.425,-316.486 820,-278 773.606,-241.128 609.915,-278.634 554,-259 538.5,-253.557 523.248,-243.783 510.877,-234.388"/>
<polygon fill="black" stroke="black" stroke-width="2" points="512.819,-231.462 502.805,-228.003 508.476,-236.952 512.819,-231.462"/>
<text text-anchor="middle" x="877" y="-343.8" font-family="Times,serif" font-size="14.00">dotnet build</text>
</g>
<!-- WIN_DLL&#45;&gt;WIN_NUPKG -->
<g id="edge25" class="edge"><title>WIN_DLL&#45;&gt;WIN_NUPKG</title>
<path fill="none" stroke="black" stroke-dasharray="5,2" d="M981.121,-372.762C982.496,-360.934 984.312,-345.316 985.854,-332.055"/>
<polygon fill="black" stroke="black" points="989.34,-332.38 987.018,-322.042 982.387,-331.571 989.34,-332.38"/>
<text text-anchor="middle" x="997" y="-343.8" font-family="Times,serif" font-size="14.00">pack</text>
</g>
<!-- WIN_NUPKG&#45;&gt;FOO_REF -->
<g id="edge45" class="edge"><title>WIN_NUPKG&#45;&gt;FOO_REF</title>
</g>
<!-- WIN_NUPKG&#45;&gt;FOO_CSPROJ -->
<g id="edge39" class="edge"><title>WIN_NUPKG&#45;&gt;FOO_CSPROJ</title>
<path fill="none" stroke="black" stroke-dasharray="5,2" d="M961.982,-285.997C924.315,-262.682 853.489,-220.239 790,-190 752.556,-172.166 709.103,-155.181 674.988,-142.648"/>
<polygon fill="black" stroke="black" points="675.767,-139.206 665.173,-139.07 673.369,-145.783 675.767,-139.206"/>
<text text-anchor="middle" x="967" y="-205.3" font-family="Times,serif" font-size="14.00">PackageReference</text>
</g>
<!-- FOO_REF&#45;&gt;FOO_CSPROJ -->
<g id="edge32" class="edge"><title>FOO_REF&#45;&gt;FOO_CSPROJ</title>
<path fill="none" stroke="black" stroke-dasharray="5,2" d="M510.881,-189.972C531.233,-176.812 558.971,-158.876 580.843,-144.733"/>
<polygon fill="black" stroke="black" points="583.018,-147.495 589.515,-139.126 579.217,-141.617 583.018,-147.495"/>
<text text-anchor="middle" x="583.5" y="-160.8" font-family="Times,serif" font-size="14.00">Content</text>
</g>
<!-- FOO_NUPKG -->
<g id="node21" class="node"><title>FOO_NUPKG</title>
<polygon fill="darkviolet" stroke="black" points="572.5,-52 569.5,-56 548.5,-56 545.5,-52 429.5,-52 429.5,-16 572.5,-16 572.5,-52"/>
<text text-anchor="middle" x="501" y="-30.3" font-family="Times,serif" font-size="14.00">Google.OrTools.nupkg</text>
</g>
<!-- FOO_REF&#45;&gt;FOO_NUPKG -->
<g id="edge35" class="edge"><title>FOO_REF&#45;&gt;FOO_NUPKG</title>
<path fill="none" stroke="black" stroke-dasharray="5,2" d="M471.17,-189.694C459.107,-168.666 443.422,-133.177 453,-103 458.008,-87.2209 468.147,-71.9464 477.821,-59.8848"/>
<polygon fill="black" stroke="black" points="480.624,-61.9896 484.375,-52.0811 475.264,-57.4874 480.624,-61.9896"/>
<text text-anchor="middle" x="466" y="-117.3" font-family="Times,serif" font-size="14.00">pack</text>
</g>
<!-- FOO_RT -->
<g id="node19" class="node"><title>FOO_RT</title>
<polygon fill="darkviolet" stroke="black" points="643,-227 563,-227 563,-191 649,-191 649,-221 643,-227"/>
<polyline fill="none" stroke="black" points="643,-227 643,-221 "/>
<polyline fill="none" stroke="black" points="649,-221 643,-221 "/>
<text text-anchor="middle" x="606" y="-205.3" font-family="Times,serif" font-size="14.00">runtime.json</text>
</g>
<!-- FOO_RT&#45;&gt;FOO_CSPROJ -->
<g id="edge33" class="edge"><title>FOO_RT&#45;&gt;FOO_CSPROJ</title>
<path fill="none" stroke="black" stroke-dasharray="5,2" d="M608.024,-190.597C609.402,-178.746 611.254,-162.817 612.827,-149.292"/>
<polygon fill="black" stroke="black" points="616.335,-149.421 614.013,-139.084 609.382,-148.613 616.335,-149.421"/>
<text text-anchor="middle" x="633.5" y="-160.8" font-family="Times,serif" font-size="14.00">Content</text>
</g>
<!-- FOO_RT&#45;&gt;FOO_NUPKG -->
<g id="edge36" class="edge"><title>FOO_RT&#45;&gt;FOO_NUPKG</title>
<path fill="none" stroke="black" stroke-dasharray="5,2" d="M568.224,-190.899C547.36,-179.358 523.086,-162.017 510,-139 496.683,-115.577 495.798,-84.2837 497.397,-62.1614"/>
<polygon fill="black" stroke="black" points="500.891,-62.3954 498.338,-52.1127 493.921,-61.7428 500.891,-62.3954"/>
<text text-anchor="middle" x="523" y="-117.3" font-family="Times,serif" font-size="14.00">pack</text>
</g>
<!-- FOO_CSPROJ&#45;&gt;FOO_NUPKG -->
<g id="edge34" class="edge"><title>FOO_CSPROJ&#45;&gt;FOO_NUPKG</title>
<path fill="none" stroke="black" stroke-width="2" d="M592.728,-102.799C575.348,-89.9529 551.408,-72.2583 532.344,-58.1671"/>
<polygon fill="black" stroke="black" stroke-width="2" points="534.36,-55.3048 524.237,-52.1754 530.199,-60.934 534.36,-55.3048"/>
<text text-anchor="middle" x="598" y="-73.8" font-family="Times,serif" font-size="14.00">dotnet pack</text>
</g>
</g>
</svg>
