<?xml version="1.0" encoding="UTF-8" standalone="no"?>
<!DOCTYPE svg PUBLIC "-//W3C//DTD SVG 1.1//EN"
 "http://www.w3.org/Graphics/SVG/1.1/DTD/svg11.dtd">
<!-- Generated by graphviz version 2.38.0 (20140413.2041)
 -->
<!-- Title: Make Pages: 1 -->
<svg width="406pt" height="787pt"
 viewBox="0.00 0.00 406.00 787.00" xmlns="http://www.w3.org/2000/svg" xmlns:xlink="http://www.w3.org/1999/xlink">
<g id="graph0" class="graph" transform="scale(1 1) rotate(0) translate(4 783)">
<title>Make</title>
<polygon fill="white" stroke="none" points="-4,4 -4,-783 402,-783 402,4 -4,4"/>
<g id="clust1" class="cluster"><title>clusterLinux</title>
<polygon fill="none" stroke="black" points="8,-8 8,-771 390,-771 390,-8 8,-8"/>
<text text-anchor="middle" x="199" y="-755.8" font-family="Times,serif" font-size="14.00">Host</text>
</g>
<!-- CPP -->
<g id="node1" class="node"><title>CPP</title>
<polygon fill="royalblue" stroke="black" points="162,-740 46,-740 46,-704 168,-704 168,-734 162,-740"/>
<polyline fill="none" stroke="black" points="162,-740 162,-734 "/>
<polyline fill="none" stroke="black" points="168,-734 162,-734 "/>
<text text-anchor="middle" x="107" y="-718.3" font-family="Times,serif" font-size="14.00">ortools.h/ortools.cc</text>
</g>
<!-- SWIG -->
<g id="node2" class="node"><title>SWIG</title>
<polygon fill="white" stroke="black" points="131.5,-652 36.5,-652 36.5,-616 137.5,-616 137.5,-646 131.5,-652"/>
<polyline fill="none" stroke="black" points="131.5,-652 131.5,-646 "/>
<polyline fill="none" stroke="black" points="137.5,-646 131.5,-646 "/>
<text text-anchor="middle" x="87" y="-630.3" font-family="Times,serif" font-size="14.00">csharp/ortools.i</text>
</g>
<!-- CPP&#45;&gt;SWIG -->
<g id="edge1" class="edge"><title>CPP&#45;&gt;SWIG</title>
<path fill="none" stroke="black" stroke-dasharray="5,2" d="M102.953,-703.597C100.169,-691.629 96.4189,-675.501 93.2537,-661.891"/>
<polygon fill="black" stroke="black" points="96.6473,-661.031 90.973,-652.084 89.8292,-662.617 96.6473,-661.031"/>
<text text-anchor="middle" x="119" y="-674.8" font-family="Times,serif" font-size="14.00">include</text>
</g>
<!-- LINUX_LIB -->
<g id="node3" class="node"><title>LINUX_LIB</title>
<polygon fill="royalblue" stroke="black" points="314,-653 156,-653 156,-649 152,-649 152,-645 156,-645 156,-623 152,-623 152,-619 156,-619 156,-615 314,-615 314,-653"/>
<polyline fill="none" stroke="black" points="156,-649 160,-649 160,-645 156,-645 "/>
<polyline fill="none" stroke="black" points="156,-623 160,-623 160,-619 156,-619 "/>
<text text-anchor="middle" x="235" y="-637.8" font-family="Times,serif" font-size="14.00">libortools.so</text>
<text text-anchor="middle" x="235" y="-622.8" font-family="Times,serif" font-size="14.00">runtimes/linux&#45;x64/native</text>
</g>
<!-- CPP&#45;&gt;LINUX_LIB -->
<g id="edge10" class="edge"><title>CPP&#45;&gt;LINUX_LIB</title>
<path fill="none" stroke="black" stroke-width="2" d="M132.595,-703.803C151.832,-690.879 178.414,-673.019 199.674,-658.735"/>
<polygon fill="black" stroke="black" stroke-width="2" points="201.777,-661.538 208.126,-653.056 197.873,-655.728 201.777,-661.538"/>
<text text-anchor="middle" x="202.5" y="-674.8" font-family="Times,serif" font-size="14.00">make_cc</text>
</g>
<!-- LINUX_CS -->
<g id="node4" class="node"><title>LINUX_CS</title>
<polygon fill="darkviolet" stroke="black" points="180.5,-564 117.5,-564 117.5,-528 186.5,-528 186.5,-558 180.5,-564"/>
<polyline fill="none" stroke="black" points="180.5,-564 180.5,-558 "/>
<polyline fill="none" stroke="black" points="186.5,-558 180.5,-558 "/>
<text text-anchor="middle" x="152" y="-542.3" font-family="Times,serif" font-size="14.00">ortools.cs</text>
</g>
<!-- SWIG&#45;&gt;LINUX_CS -->
<g id="edge9" class="edge"><title>SWIG&#45;&gt;LINUX_CS</title>
<path fill="none" stroke="black" stroke-width="2" d="M96.1461,-615.84C101.892,-605.638 109.757,-592.653 118,-582 120.757,-578.436 123.837,-574.843 126.985,-571.386"/>
<polygon fill="black" stroke="black" stroke-width="2" points="129.552,-573.765 133.889,-564.099 124.471,-568.95 129.552,-573.765"/>
<text text-anchor="middle" x="131" y="-585.8" font-family="Times,serif" font-size="14.00">swig</text>
</g>
<!-- LINUX_LIB&#45;&gt;LINUX_CS -->
<g id="edge2" class="edge"><title>LINUX_LIB&#45;&gt;LINUX_CS</title>
<path fill="none" stroke="black" stroke-dasharray="5,2" d="M197.892,-614.862C190.004,-609.84 182.197,-603.853 176,-597 169.872,-590.225 164.99,-581.604 161.272,-573.436"/>
<polygon fill="black" stroke="black" points="164.502,-572.088 157.437,-564.193 158.037,-574.771 164.502,-572.088"/>
<text text-anchor="middle" x="199" y="-585.8" font-family="Times,serif" font-size="14.00">PInvoke</text>
</g>
<!-- LINUX_CSPROJ -->
<g id="node5" class="node"><title>LINUX_CSPROJ</title>
<polygon fill="darkviolet" stroke="black" points="268.5,-477 29.5,-477 29.5,-441 274.5,-441 274.5,-471 268.5,-477"/>
<polyline fill="none" stroke="black" points="268.5,-477 268.5,-471 "/>
<polyline fill="none" stroke="black" points="274.5,-471 268.5,-471 "/>
<text text-anchor="middle" x="152" y="-455.3" font-family="Times,serif" font-size="14.00">runtime.linux&#45;x64.Google.OrTools.csproj</text>
</g>
<!-- LINUX_LIB&#45;&gt;LINUX_CSPROJ -->
<g id="edge4" class="edge"><title>LINUX_LIB&#45;&gt;LINUX_CSPROJ</title>
<path fill="none" stroke="black" stroke-dasharray="5,2" d="M235.062,-614.785C234.305,-586.675 229.361,-532.096 204,-495 201.081,-490.73 197.453,-486.839 193.48,-483.334"/>
<polygon fill="black" stroke="black" points="195.536,-480.498 185.512,-477.069 191.21,-486.001 195.536,-480.498"/>
<text text-anchor="middle" x="250.5" y="-542.3" font-family="Times,serif" font-size="14.00">Content</text>
</g>
<!-- LINUX_NUPKG -->
<g id="node7" class="node"><title>LINUX_NUPKG</title>
<polygon fill="darkviolet" stroke="black" points="364.5,-301 361.5,-305 340.5,-305 337.5,-301 119.5,-301 119.5,-265 364.5,-265 364.5,-301"/>
<text text-anchor="middle" x="242" y="-279.3" font-family="Times,serif" font-size="14.00">runtime.linux&#45;x64.Google.OrTools.nupkg</text>
</g>
<!-- LINUX_LIB&#45;&gt;LINUX_NUPKG -->
<g id="edge6" class="edge"><title>LINUX_LIB&#45;&gt;LINUX_NUPKG</title>
<path fill="none" stroke="black" stroke-dasharray="5,2" d="M246.825,-614.79C271.395,-575.644 327.088,-479.739 344,-390 347.128,-373.403 351.969,-366.891 344,-352 333.25,-331.913 313.655,-316.735 294.493,-305.873"/>
<polygon fill="black" stroke="black" points="295.925,-302.67 285.458,-301.035 292.621,-308.841 295.925,-302.67"/>
<text text-anchor="middle" x="343" y="-455.3" font-family="Times,serif" font-size="14.00">pack</text>
</g>
<!-- LINUX_CS&#45;&gt;LINUX_CSPROJ -->
<g id="edge3" class="edge"><title>LINUX_CS&#45;&gt;LINUX_CSPROJ</title>
<path fill="none" stroke="black" stroke-dasharray="5,2" d="M152,-527.799C152,-516.163 152,-500.548 152,-487.237"/>
<polygon fill="black" stroke="black" points="155.5,-487.175 152,-477.175 148.5,-487.175 155.5,-487.175"/>
<text text-anchor="middle" x="176" y="-498.8" font-family="Times,serif" font-size="14.00">Compile</text>
</g>
<!-- LINUX_DLL -->
<g id="node6" class="node"><title>LINUX_DLL</title>
<polygon fill="darkviolet" stroke="black" points="262,-390 36,-390 36,-386 32,-386 32,-382 36,-382 36,-360 32,-360 32,-356 36,-356 36,-352 262,-352 262,-390"/>
<polyline fill="none" stroke="black" points="36,-386 40,-386 40,-382 36,-382 "/>
<polyline fill="none" stroke="black" points="36,-360 40,-360 40,-356 36,-356 "/>
<text text-anchor="middle" x="149" y="-374.8" font-family="Times,serif" font-size="14.00">Google.OrTools.dll</text>
<text text-anchor="middle" x="149" y="-359.8" font-family="Times,serif" font-size="14.00">runtimes/linux&#45;x64/lib/netstandard2.0/</text>
</g>
<!-- LINUX_CSPROJ&#45;&gt;LINUX_DLL -->
<g id="edge5" class="edge"><title>LINUX_CSPROJ&#45;&gt;LINUX_DLL</title>
<path fill="none" stroke="black" stroke-width="2" d="M151.393,-440.597C150.99,-429.056 150.453,-413.647 149.989,-400.357"/>
<polygon fill="black" stroke="black" stroke-width="2" points="153.484,-400.14 149.637,-390.268 146.488,-400.384 153.484,-400.14"/>
<text text-anchor="middle" x="184" y="-411.8" font-family="Times,serif" font-size="14.00">dotnet build</text>
</g>
<!-- LINUX_CSPROJ&#45;&gt;LINUX_NUPKG -->
<g id="edge8" class="edge"><title>LINUX_CSPROJ&#45;&gt;LINUX_NUPKG</title>
<path fill="none" stroke="black" stroke-width="2" d="M208.419,-440.904C232.481,-430.406 257.976,-414.201 271,-390 284.748,-364.454 271.934,-331.86 259.261,-309.602"/>
<polygon fill="black" stroke="black" stroke-width="2" points="262.259,-307.796 254.101,-301.036 256.263,-311.408 262.259,-307.796"/>
<text text-anchor="middle" x="308" y="-367.3" font-family="Times,serif" font-size="14.00">dotnet pack</text>
</g>
<!-- FOO_REF -->
<g id="node8" class="node"><title>FOO_REF</title>
<polygon fill="darkviolet" stroke="black" points="285.5,-228 162.5,-228 162.5,-224 158.5,-224 158.5,-220 162.5,-220 162.5,-198 158.5,-198 158.5,-194 162.5,-194 162.5,-190 285.5,-190 285.5,-228"/>
<polyline fill="none" stroke="black" points="162.5,-224 166.5,-224 166.5,-220 162.5,-220 "/>
<polyline fill="none" stroke="black" points="162.5,-198 166.5,-198 166.5,-194 162.5,-194 "/>
<text text-anchor="middle" x="224" y="-212.8" font-family="Times,serif" font-size="14.00">Google.OrTools.dll</text>
<text text-anchor="middle" x="224" y="-197.8" font-family="Times,serif" font-size="14.00">ref/netstandard2.0/</text>
</g>
<!-- LINUX_CSPROJ&#45;&gt;FOO_REF -->
<g id="edge11" class="edge"><title>LINUX_CSPROJ&#45;&gt;FOO_REF</title>
<path fill="none" stroke="black" stroke-width="2" d="M92.8959,-440.928C67.9832,-430.483 41.4531,-414.316 27,-390 18.3707,-375.482 20.7209,-367.678 27,-352 50.7084,-292.803 115.17,-253.987 163.952,-232.134"/>
<polygon fill="black" stroke="black" stroke-width="2" points="165.402,-235.32 173.174,-228.119 162.608,-228.902 165.402,-235.32"/>
<text text-anchor="middle" x="79" y="-322.8" font-family="Times,serif" font-size="14.00">dotnet build</text>
</g>
<!-- LINUX_DLL&#45;&gt;LINUX_NUPKG -->
<g id="edge7" class="edge"><title>LINUX_DLL&#45;&gt;LINUX_NUPKG</title>
<path fill="none" stroke="black" stroke-dasharray="5,2" d="M168.723,-351.762C182.526,-338.998 201.104,-321.818 216.1,-307.951"/>
<polygon fill="black" stroke="black" points="218.605,-310.401 223.571,-301.042 213.852,-305.262 218.605,-310.401"/>
<text text-anchor="middle" x="216" y="-322.8" font-family="Times,serif" font-size="14.00">pack</text>
</g>
<!-- LINUX_NUPKG&#45;&gt;FOO_REF -->
<g id="edge17" class="edge"><title>LINUX_NUPKG&#45;&gt;FOO_REF</title>
</g>
<!-- FOO_CSPROJ -->
<g id="node9" class="node"><title>FOO_CSPROJ</title>
<polygon fill="darkviolet" stroke="black" points="200,-139 64,-139 64,-103 206,-103 206,-133 200,-139"/>
<polyline fill="none" stroke="black" points="200,-139 200,-133 "/>
<polyline fill="none" stroke="black" points="206,-133 200,-133 "/>
<text text-anchor="middle" x="135" y="-117.3" font-family="Times,serif" font-size="14.00">Google.OrTools.csproj</text>
</g>
<!-- LINUX_NUPKG&#45;&gt;FOO_CSPROJ -->
<g id="edge16" class="edge"><title>LINUX_NUPKG&#45;&gt;FOO_CSPROJ</title>
<path fill="none" stroke="black" stroke-dasharray="5,2" d="M143.129,-264.981C103.644,-255.99 64.7393,-243.563 53,-228 31.2283,-199.137 66.0995,-166.258 96.8713,-144.873"/>
<polygon fill="black" stroke="black" points="99.0356,-147.636 105.391,-139.159 95.1367,-141.823 99.0356,-147.636"/>
<text text-anchor="middle" x="103" y="-205.3" font-family="Times,serif" font-size="14.00">PackageReference</text>
</g>
<!-- FOO_NUPKG -->
<g id="node10" class="node"><title>FOO_NUPKG</title>
<polygon fill="darkviolet" stroke="black" points="313.5,-52 310.5,-56 289.5,-56 286.5,-52 170.5,-52 170.5,-16 313.5,-16 313.5,-52"/>
<text text-anchor="middle" x="242" y="-30.3" font-family="Times,serif" font-size="14.00">Google.OrTools.nupkg</text>
</g>
<!-- LINUX_NUPKG&#45;&gt;FOO_NUPKG -->
<g id="edge14" class="edge"><title>LINUX_NUPKG&#45;&gt;FOO_NUPKG</title>
<path fill="none" stroke="black" stroke-dasharray="5,2" d="M265.931,-264.826C277.017,-255.369 289.036,-242.591 295,-228 318.573,-170.328 283.124,-98.7635 259.768,-61.0596"/>
<polygon fill="black" stroke="black" points="262.465,-58.7787 254.134,-52.2325 256.564,-62.5449 262.465,-58.7787"/>
<text text-anchor="middle" x="337.5" y="-160.8" font-family="Times,serif" font-size="14.00">dependencies</text>
</g>
<!-- FOO_REF&#45;&gt;FOO_CSPROJ -->
<g id="edge12" class="edge"><title>FOO_REF&#45;&gt;FOO_CSPROJ</title>
<path fill="none" stroke="black" stroke-dasharray="5,2" d="M205.125,-189.762C192.037,-177.115 174.463,-160.133 160.182,-146.333"/>
<polygon fill="black" stroke="black" points="162.26,-143.474 152.637,-139.042 157.396,-148.508 162.26,-143.474"/>
<text text-anchor="middle" x="205.5" y="-160.8" font-family="Times,serif" font-size="14.00">Content</text>
</g>
<!-- FOO_REF&#45;&gt;FOO_NUPKG -->
<g id="edge15" class="edge"><title>FOO_REF&#45;&gt;FOO_NUPKG</title>
<path fill="none" stroke="black" stroke-dasharray="5,2" d="M227.959,-189.752C229.078,-184.085 230.205,-177.804 231,-172 236.173,-134.225 239.174,-90.2317 240.699,-62.4999"/>
<polygon fill="black" stroke="black" points="244.201,-62.538 241.229,-52.3685 237.211,-62.1716 244.201,-62.538"/>
<text text-anchor="middle" x="251" y="-117.3" font-family="Times,serif" font-size="14.00">pack</text>
</g>
<!-- FOO_CSPROJ&#45;&gt;FOO_NUPKG -->
<g id="edge13" class="edge"><title>FOO_CSPROJ&#45;&gt;FOO_NUPKG</title>
<path fill="none" stroke="black" stroke-width="2" d="M145.331,-102.66C152.19,-92.2237 161.948,-79.2184 173,-70 178.673,-65.268 185.094,-60.9538 191.678,-57.0962"/>
<polygon fill="black" stroke="black" stroke-width="2" points="193.635,-60.0142 200.705,-52.1226 190.257,-53.8833 193.635,-60.0142"/>
<text text-anchor="middle" x="205" y="-73.8" font-family="Times,serif" font-size="14.00">dotnet pack</text>
</g>
</g>
</svg>
